<svg id="Group_26" data-name="Group 26" xmlns="http://www.w3.org/2000/svg" width="1525.075" height="833.792" viewBox="0 0 1525.075 833.792">
  <path id="Path_329" data-name="Path 329" d="M298.5,460.3H249.7a6.471,6.471,0,0,0-6.471,6.471v21.423a6.471,6.471,0,0,0,6.471,6.471h8.088v32.1h32.631v-32.1H298.5a6.471,6.471,0,0,0,6.471-6.471V466.771A6.471,6.471,0,0,0,298.5,460.3Z" transform="translate(-93.422 -25.714)" fill="#f5d452"/>
  <path id="Path_330" data-name="Path 330" d="M366.158,642.681A250.925,250.925,0,0,1,322.5,493.91a5.292,5.292,0,0,0-4.131-5.281v-9.257H266.827V488.5h-.71a5.289,5.289,0,0,0-5.268,5.681q6.091,84.913-41.139,152.3a14.576,14.576,0,0,0-2.638,8.834l5.636,174.35a15.093,15.093,0,0,0,14.964,14.567H354.264A15.1,15.1,0,0,0,369.237,829.4l2.172-169.28a30.551,30.551,0,0,0-5.251-17.444Z" transform="translate(-112.191 -12.032)" fill="#3f3d56"/>
  <path id="Path_331" data-name="Path 331" d="M281.151,464.365a13.961,13.961,0,0,1-27.921,0" transform="translate(-86.244 -22.798)" opacity="0.2"/>
  <path id="Path_332" data-name="Path 332" d="M339.876,621.3H325.757a37.055,37.055,0,0,0-73.246,0H238.392a10.419,10.419,0,0,0-10.3,12l15.336,99.682h88.059l18.627-99.346A10.419,10.419,0,0,0,339.876,621.3Z" transform="translate(-104.365 67.259)" fill="#f5d452"/>
  <path id="Path_333" data-name="Path 333" d="M893.921,307.634l-3.387,135.357L886.34,610.841H743.581l-4.915-196.656L736,307.634Z" transform="translate(528.026 220.705)" fill="#e6e6e6"/>
  <rect id="Rectangle_89" data-name="Rectangle 89" width="20.214" height="267.833" transform="translate(1332.248 456.327)" fill="#f5d452"/>
  <path id="Path_334" data-name="Path 334" d="M1035.892,589.447l-3.823,192.386H901.945l-4.479-225.4a88.677,88.677,0,0,1,70.117,9.644C989.324,578.934,1013.748,585.856,1035.892,589.447Z" transform="translate(375.947 40.883)" fill="#3f3d56"/>
  <rect id="Rectangle_90" data-name="Rectangle 90" width="18.548" height="18.548" transform="translate(1291.558 651.987)" fill="#e6e6e6"/>
  <rect id="Rectangle_91" data-name="Rectangle 91" width="18.548" height="18.548" transform="translate(1304.192 614.086)" fill="#e6e6e6"/>
  <rect id="Rectangle_92" data-name="Rectangle 92" width="18.548" height="18.548" transform="translate(1347.677 629.278) rotate(36.562)" fill="#e6e6e6"/>
  <rect id="Rectangle_93" data-name="Rectangle 93" width="18.548" height="18.548" transform="translate(1381.189 662.142) rotate(36.562)" fill="#e6e6e6"/>
  <rect id="Rectangle_94" data-name="Rectangle 94" width="18.548" height="18.548" transform="translate(1324.337 681.093) rotate(36.562)" fill="#e6e6e6"/>
  <circle id="Ellipse_62" data-name="Ellipse 62" cx="3.79" cy="3.79" r="3.79" transform="translate(1378.992 599.087)" fill="#3f3d56"/>
  <circle id="Ellipse_63" data-name="Ellipse 63" cx="3.79" cy="3.79" r="3.79" transform="translate(1301.927 573.82)" fill="#3f3d56"/>
  <circle id="Ellipse_64" data-name="Ellipse 64" cx="3.79" cy="3.79" r="3.79" transform="translate(1366.359 547.289)" fill="#3f3d56"/>
  <circle id="Ellipse_65" data-name="Ellipse 65" cx="415.195" cy="415.195" r="415.195" transform="translate(348.215 0)" fill="#f5d452"/>
  <path id="Path_335" data-name="Path 335" d="M727.114,878.668A303.05,303.05,0,1,1,941.4,789.907,303.05,303.05,0,0,1,727.114,878.668Zm0-587.414c-156.8,0-284.362,127.564-284.362,284.362S570.316,859.978,727.114,859.978s284.362-127.565,284.362-284.362S883.911,291.254,727.114,291.254Z" transform="translate(36.296 -160.421)" opacity="0.2"/>
  <circle id="Ellipse_66" data-name="Ellipse 66" cx="293.707" cy="293.707" r="293.707" transform="translate(469.703 121.488)" fill="#3f3d56"/>
  <path id="Path_336" data-name="Path 336" d="M475.026,403.268a37.275,37.275,0,1,1,66.432-33.83l82.98,162.947a37.275,37.275,0,1,1-66.432,33.83Z" transform="translate(69.96 -105.514)" fill="#ff6584"/>
  <path id="Path_337" data-name="Path 337" d="M480.316,408.484l-3.83-7.521c19.113-14.851,41.558-25.773,66.432-33.83l3.83,7.521C519.827,380.26,496.923,390.634,480.316,408.484Z" transform="translate(73.926 -92.555)" opacity="0.2"/>
  <path id="Path_338" data-name="Path 338" d="M490.723,428.919l-3.83-7.521c19.113-14.851,41.558-25.773,66.432-33.83l3.83,7.521C530.234,400.695,507.33,411.07,490.723,428.919Z" transform="translate(81.392 -77.894)" opacity="0.2"/>
  <path id="Path_339" data-name="Path 339" d="M501.13,449.354l-3.83-7.521c19.113-14.851,41.558-25.773,66.432-33.83l3.83,7.521C540.64,421.13,517.736,431.505,501.13,449.354Z" transform="translate(88.858 -63.233)" opacity="0.2"/>
  <path id="Path_340" data-name="Path 340" d="M511.536,469.79l-3.83-7.521c19.114-14.851,41.558-25.773,66.432-33.83l3.83,7.521C551.047,441.566,528.143,451.94,511.536,469.79Z" transform="translate(96.324 -48.573)" opacity="0.2"/>
  <path id="Path_341" data-name="Path 341" d="M521.943,490.225l-3.83-7.521c19.114-14.851,41.558-25.773,66.432-33.83l3.83,7.521C561.453,462,538.55,472.376,521.943,490.225Z" transform="translate(103.79 -33.912)" opacity="0.2"/>
  <path id="Path_342" data-name="Path 342" d="M438.778,438.787a37.275,37.275,0,1,1,66.432-33.83L588.19,567.9a37.275,37.275,0,0,1-66.432,33.83Z" transform="translate(43.955 -80.032)" fill="#ff6584"/>
  <path id="Path_343" data-name="Path 343" d="M444.068,444l-3.83-7.521c19.114-14.851,41.558-25.773,66.432-33.83l3.83,7.521C483.579,415.779,460.675,426.153,444.068,444Z" transform="translate(47.92 -67.073)" opacity="0.2"/>
  <path id="Path_344" data-name="Path 344" d="M454.475,464.438l-3.83-7.521c19.114-14.851,41.558-25.773,66.432-33.83l3.83,7.521C493.985,436.214,471.082,446.589,454.475,464.438Z" transform="translate(55.386 -52.412)" opacity="0.2"/>
  <path id="Path_345" data-name="Path 345" d="M464.881,484.873l-3.83-7.521c19.114-14.851,41.558-25.773,66.432-33.83l3.83,7.521C504.392,456.649,481.488,467.024,464.881,484.873Z" transform="translate(62.852 -37.751)" opacity="0.2"/>
  <path id="Path_346" data-name="Path 346" d="M475.288,505.309l-3.83-7.521c19.113-14.851,41.558-25.773,66.432-33.83l3.83,7.521C514.8,477.085,491.895,487.46,475.288,505.309Z" transform="translate(70.318 -23.09)" opacity="0.2"/>
  <path id="Path_347" data-name="Path 347" d="M485.694,525.744l-3.83-7.521c19.113-14.851,41.558-25.773,66.432-33.83l3.83,7.521C525.205,497.52,502.3,507.895,485.694,525.744Z" transform="translate(77.784 -8.429)" opacity="0.2"/>
  <path id="Path_348" data-name="Path 348" d="M814.61,549.258h.262A44.461,44.461,0,0,0,856.5,521.374a145.127,145.127,0,0,0,10.172-54.432c-.466-78.848-64.614-143.534-143.456-144.625A145.542,145.542,0,0,0,662.633,601.09a44.081,44.081,0,0,0,48.956-9.078A145.051,145.051,0,0,1,814.61,549.258Z" transform="translate(145.05 -124.718)" fill="#e6e6e6"/>
  <circle id="Ellipse_67" data-name="Ellipse 67" cx="48.061" cy="48.061" r="48.061" transform="translate(836.837 284.362)" fill="#f9a825"/>
  <circle id="Ellipse_68" data-name="Ellipse 68" cx="5.662" cy="5.662" r="5.662" transform="translate(774.782 315.695)" fill="#3f3d56"/>
  <circle id="Ellipse_69" data-name="Ellipse 69" cx="5.662" cy="5.662" r="5.662" transform="translate(587.878 321.035)" fill="#3f3d56"/>
  <circle id="Ellipse_70" data-name="Ellipse 70" cx="5.662" cy="5.662" r="5.662" transform="translate(804.957 257.018)" fill="#3f3d56"/>
  <circle id="Ellipse_71" data-name="Ellipse 71" cx="5.662" cy="5.662" r="5.662" transform="translate(804.796 420.213)" fill="#3f3d56"/>
  <circle id="Ellipse_72" data-name="Ellipse 72" cx="5.662" cy="5.662" r="5.662" transform="translate(916.939 245.324)" fill="#3f3d56"/>
  <circle id="Ellipse_73" data-name="Ellipse 73" cx="5.662" cy="5.662" r="5.662" transform="translate(551.14 400.188)" fill="#3f3d56"/>
  <circle id="Ellipse_74" data-name="Ellipse 74" cx="5.662" cy="5.662" r="5.662" transform="translate(592.526 481.625)" fill="#3f3d56"/>
  <circle id="Ellipse_75" data-name="Ellipse 75" cx="21.361" cy="21.361" r="21.361" transform="translate(836.837 476.606)" fill="#ff6584"/>
  <path id="Path_349" data-name="Path 349" d="M678.412,497.982a16.02,16.02,0,1,1-32.041,0" transform="translate(195.806 1.32)" opacity="0.2"/>
  <path id="Path_350" data-name="Path 350" d="M646.371,503.12a16.02,16.02,0,0,1,32.041,0" transform="translate(195.806 -6.488)" opacity="0.2"/>
  <ellipse id="Ellipse_76" data-name="Ellipse 76" cx="1.335" cy="2.003" rx="1.335" ry="2.003" transform="translate(848.852 488.622)" fill="#ff6584"/>
  <ellipse id="Ellipse_77" data-name="Ellipse 77" cx="1.335" cy="2.003" rx="1.335" ry="2.003" transform="translate(856.862 485.952)" fill="#ff6584"/>
  <ellipse id="Ellipse_78" data-name="Ellipse 78" cx="1.335" cy="2.003" rx="1.335" ry="2.003" transform="translate(856.862 503.307)" fill="#ff6584"/>
  <ellipse id="Ellipse_79" data-name="Ellipse 79" cx="1.335" cy="2.003" rx="1.335" ry="2.003" transform="translate(864.873 492.627)" fill="#ff6584"/>
  <ellipse id="Ellipse_80" data-name="Ellipse 80" cx="1.335" cy="2.003" rx="1.335" ry="2.003" transform="translate(863.538 507.312)" fill="#ff6584"/>
  <ellipse id="Ellipse_81" data-name="Ellipse 81" cx="1.335" cy="2.003" rx="1.335" ry="2.003" transform="translate(847.517 500.637)" fill="#ff6584"/>
  <circle id="Ellipse_82" data-name="Ellipse 82" cx="21.361" cy="21.361" r="21.361" transform="translate(879.558 419.2)" fill="#ff6584"/>
  <path id="Path_351" data-name="Path 351" d="M703.287,464.556a16.02,16.02,0,1,1-32.041,0" transform="translate(213.652 -22.661)" opacity="0.2"/>
  <path id="Path_352" data-name="Path 352" d="M671.246,469.694a16.02,16.02,0,1,1,32.041,0" transform="translate(213.652 -30.469)" opacity="0.2"/>
  <ellipse id="Ellipse_83" data-name="Ellipse 83" cx="1.335" cy="2.003" rx="1.335" ry="2.003" transform="translate(891.573 431.215)" fill="#ff6584"/>
  <ellipse id="Ellipse_84" data-name="Ellipse 84" cx="1.335" cy="2.003" rx="1.335" ry="2.003" transform="translate(899.583 428.545)" fill="#ff6584"/>
  <ellipse id="Ellipse_85" data-name="Ellipse 85" cx="1.335" cy="2.003" rx="1.335" ry="2.003" transform="translate(899.583 445.901)" fill="#ff6584"/>
  <ellipse id="Ellipse_86" data-name="Ellipse 86" cx="1.335" cy="2.003" rx="1.335" ry="2.003" transform="translate(907.594 435.22)" fill="#ff6584"/>
  <ellipse id="Ellipse_87" data-name="Ellipse 87" cx="1.335" cy="2.003" rx="1.335" ry="2.003" transform="translate(906.259 449.906)" fill="#ff6584"/>
  <ellipse id="Ellipse_88" data-name="Ellipse 88" cx="1.335" cy="2.003" rx="1.335" ry="2.003" transform="translate(890.238 443.231)" fill="#ff6584"/>
  <circle id="Ellipse_89" data-name="Ellipse 89" cx="21.361" cy="21.361" r="21.361" transform="translate(922.279 448.571)" fill="#f5d452"/>
  <path id="Path_353" data-name="Path 353" d="M728.162,481.658a16.02,16.02,0,1,1-32.041,0" transform="translate(231.498 -10.392)" opacity="0.2"/>
  <path id="Path_354" data-name="Path 354" d="M696.121,486.8a16.02,16.02,0,0,1,32.041,0" transform="translate(231.498 -18.199)" opacity="0.2"/>
  <ellipse id="Ellipse_90" data-name="Ellipse 90" cx="1.335" cy="2.003" rx="1.335" ry="2.003" transform="translate(934.294 460.586)" fill="#f5d452"/>
  <ellipse id="Ellipse_91" data-name="Ellipse 91" cx="1.335" cy="2.003" rx="1.335" ry="2.003" transform="translate(942.304 457.916)" fill="#f5d452"/>
  <ellipse id="Ellipse_92" data-name="Ellipse 92" cx="1.335" cy="2.003" rx="1.335" ry="2.003" transform="translate(942.304 475.271)" fill="#f5d452"/>
  <ellipse id="Ellipse_93" data-name="Ellipse 93" cx="1.335" cy="2.003" rx="1.335" ry="2.003" transform="translate(950.315 464.591)" fill="#f5d452"/>
  <ellipse id="Ellipse_94" data-name="Ellipse 94" cx="1.335" cy="2.003" rx="1.335" ry="2.003" transform="translate(948.98 479.276)" fill="#f5d452"/>
  <ellipse id="Ellipse_95" data-name="Ellipse 95" cx="1.335" cy="2.003" rx="1.335" ry="2.003" transform="translate(932.959 472.601)" fill="#f5d452"/>
  <circle id="Ellipse_96" data-name="Ellipse 96" cx="21.361" cy="21.361" r="21.361" transform="translate(815.476 451.241)" fill="#f5d452"/>
  <path id="Path_355" data-name="Path 355" d="M665.975,483.213a16.02,16.02,0,1,1-32.041,0" transform="translate(186.883 -9.276)" opacity="0.2"/>
  <path id="Path_356" data-name="Path 356" d="M633.934,488.35a16.02,16.02,0,1,1,32.041,0" transform="translate(186.883 -17.084)" opacity="0.2"/>
  <ellipse id="Ellipse_97" data-name="Ellipse 97" cx="1.335" cy="2.003" rx="1.335" ry="2.003" transform="translate(827.492 463.256)" fill="#f5d452"/>
  <ellipse id="Ellipse_98" data-name="Ellipse 98" cx="1.335" cy="2.003" rx="1.335" ry="2.003" transform="translate(835.502 460.586)" fill="#f5d452"/>
  <ellipse id="Ellipse_99" data-name="Ellipse 99" cx="1.335" cy="2.003" rx="1.335" ry="2.003" transform="translate(835.502 477.941)" fill="#f5d452"/>
  <ellipse id="Ellipse_100" data-name="Ellipse 100" cx="1.335" cy="2.003" rx="1.335" ry="2.003" transform="translate(843.512 467.261)" fill="#f5d452"/>
  <ellipse id="Ellipse_101" data-name="Ellipse 101" cx="1.335" cy="2.003" rx="1.335" ry="2.003" transform="translate(842.177 481.946)" fill="#f5d452"/>
  <ellipse id="Ellipse_102" data-name="Ellipse 102" cx="1.335" cy="2.003" rx="1.335" ry="2.003" transform="translate(826.157 475.271)" fill="#f5d452"/>
  <circle id="Ellipse_103" data-name="Ellipse 103" cx="21.361" cy="21.361" r="21.361" transform="translate(863.538 460.586)" fill="#f5d452"/>
  <path id="Path_357" data-name="Path 357" d="M693.959,488.654a16.02,16.02,0,1,1-32.041,0" transform="translate(206.959 -5.373)" opacity="0.2"/>
  <path id="Path_358" data-name="Path 358" d="M661.918,493.792a16.02,16.02,0,1,1,32.041,0" transform="translate(206.959 -13.18)" opacity="0.2"/>
  <ellipse id="Ellipse_104" data-name="Ellipse 104" cx="1.335" cy="2.003" rx="1.335" ry="2.003" transform="translate(875.553 472.601)" fill="#f5d452"/>
  <ellipse id="Ellipse_105" data-name="Ellipse 105" cx="1.335" cy="2.003" rx="1.335" ry="2.003" transform="translate(883.563 469.931)" fill="#f5d452"/>
  <ellipse id="Ellipse_106" data-name="Ellipse 106" cx="1.335" cy="2.003" rx="1.335" ry="2.003" transform="translate(883.563 487.287)" fill="#f5d452"/>
  <ellipse id="Ellipse_107" data-name="Ellipse 107" cx="1.335" cy="2.003" rx="1.335" ry="2.003" transform="translate(891.573 476.606)" fill="#f5d452"/>
  <ellipse id="Ellipse_108" data-name="Ellipse 108" cx="1.335" cy="2.003" rx="1.335" ry="2.003" transform="translate(890.238 491.292)" fill="#f5d452"/>
  <ellipse id="Ellipse_109" data-name="Ellipse 109" cx="1.335" cy="2.003" rx="1.335" ry="2.003" transform="translate(874.218 484.617)" fill="#f5d452"/>
  <circle id="Ellipse_110" data-name="Ellipse 110" cx="21.361" cy="21.361" r="21.361" transform="translate(896.913 483.281)" fill="#ff6584"/>
  <path id="Path_359" data-name="Path 359" d="M713.393,501.869a16.02,16.02,0,1,1-32.041,0" transform="translate(220.902 4.108)" opacity="0.2"/>
  <path id="Path_360" data-name="Path 360" d="M681.352,507.007a16.02,16.02,0,0,1,32.041,0" transform="translate(220.902 -3.7)" opacity="0.2"/>
  <ellipse id="Ellipse_111" data-name="Ellipse 111" cx="1.335" cy="2.003" rx="1.335" ry="2.003" transform="translate(908.929 495.297)" fill="#ff6584"/>
  <ellipse id="Ellipse_112" data-name="Ellipse 112" cx="1.335" cy="2.003" rx="1.335" ry="2.003" transform="translate(916.939 492.627)" fill="#ff6584"/>
  <ellipse id="Ellipse_113" data-name="Ellipse 113" cx="1.335" cy="2.003" rx="1.335" ry="2.003" transform="translate(916.939 509.982)" fill="#ff6584"/>
  <ellipse id="Ellipse_114" data-name="Ellipse 114" cx="1.335" cy="2.003" rx="1.335" ry="2.003" transform="translate(924.949 499.302)" fill="#ff6584"/>
  <ellipse id="Ellipse_115" data-name="Ellipse 115" cx="1.335" cy="2.003" rx="1.335" ry="2.003" transform="translate(923.614 513.987)" fill="#ff6584"/>
  <ellipse id="Ellipse_116" data-name="Ellipse 116" cx="1.335" cy="2.003" rx="1.335" ry="2.003" transform="translate(907.594 507.312)" fill="#ff6584"/>
  <circle id="Ellipse_117" data-name="Ellipse 117" cx="5.662" cy="5.662" r="5.662" transform="translate(637.917 417.543)" fill="#3f3d56"/>
  <path id="Path_361" data-name="Path 361" d="M521.147,389.915,385.17,352.205l5.209-19.349,135.977,37.711Z" transform="translate(276.331 238.801)" fill="#f9a825"/>
  <path id="Path_362" data-name="Path 362" d="M667.623,577.949a374.862,374.862,0,0,1-140.962,0V557.892a431.057,431.057,0,0,0,140.962,0Z" transform="translate(109.922 44.301)" fill="#f9a825"/>
  <path id="Path_363" data-name="Path 363" d="M676.061,542.914a374.861,374.861,0,0,1-140.963,0V522.857a431.061,431.061,0,0,0,140.962,0Z" transform="translate(115.975 19.166)" fill="#f9a825"/>
  <path id="Path_364" data-name="Path 364" d="M704.443,556.928a374.861,374.861,0,0,1-140.963,0V536.871a431.051,431.051,0,0,0,140.963,0Z" transform="translate(136.337 29.22)" fill="#f9a825"/>
  <path id="Path_365" data-name="Path 365" d="M711.346,570.163a374.856,374.856,0,0,1-140.962,0V550.107a431.051,431.051,0,0,0,140.962,0Z" transform="translate(141.29 38.715)" fill="#f9a825"/>
  <path id="Path_366" data-name="Path 366" d="M579.973,380.09,440.9,403.451l-3.225-19.788,139.07-23.36Z" transform="translate(314.001 258.49)" fill="#f9a825"/>
  <path id="Path_367" data-name="Path 367" d="M721.387,588.19A377.787,377.787,0,0,1,593.3,647.929L585.05,629.7a434.435,434.435,0,0,0,128.086-59.74Z" transform="translate(151.812 52.962)" fill="#f9a825"/>
  <path id="Path_368" data-name="Path 368" d="M714.641,552.779a377.784,377.784,0,0,1-128.086,59.74L578.3,594.294a434.426,434.426,0,0,0,128.086-59.74Z" transform="translate(146.972 27.558)" fill="#f9a825"/>
  <path id="Path_369" data-name="Path 369" d="M746.2,553.485a377.784,377.784,0,0,1-128.086,59.74L609.859,595a434.43,434.43,0,0,0,128.086-59.74Z" transform="translate(169.611 28.064)" fill="#f9a825"/>
  <path id="Path_370" data-name="Path 370" d="M757.914,562.585a377.781,377.781,0,0,1-128.086,59.74L621.577,604.1a434.43,434.43,0,0,0,128.086-59.74Z" transform="translate(178.018 34.593)" fill="#f9a825"/>
  <rect id="Rectangle_95" data-name="Rectangle 95" width="6.675" height="6.675" transform="translate(760.74 558.043)" fill="#00bf71"/>
  <rect id="Rectangle_96" data-name="Rectangle 96" width="6.675" height="6.675" transform="translate(780.766 674.191)" fill="#00bf71"/>
  <rect id="Rectangle_97" data-name="Rectangle 97" width="6.675" height="6.675" transform="translate(673.963 558.043)" fill="#00bf71"/>
  <rect id="Rectangle_98" data-name="Rectangle 98" width="6.675" height="6.675" transform="translate(828.827 640.815)" fill="#00bf71"/>
  <rect id="Rectangle_99" data-name="Rectangle 99" width="6.675" height="6.675" transform="translate(832.832 602.099)" fill="#00bf71"/>
  <rect id="Rectangle_100" data-name="Rectangle 100" width="9.345" height="5.34" transform="translate(721.658 578.568) rotate(34.156)" fill="#00bf71"/>
  <rect id="Rectangle_101" data-name="Rectangle 101" width="9.345" height="5.34" transform="translate(800.425 593.253) rotate(34.156)" fill="#00bf71"/>
  <rect id="Rectangle_102" data-name="Rectangle 102" width="9.345" height="5.34" transform="translate(704.303 618.618) rotate(34.156)" fill="#00bf71"/>
  <rect id="Rectangle_103" data-name="Rectangle 103" width="9.345" height="5.34" transform="translate(766.249 615.751) rotate(124.156)" fill="#00bf71"/>
  <rect id="Rectangle_104" data-name="Rectangle 104" width="9.345" height="5.34" transform="translate(802.295 625.096) rotate(124.156)" fill="#00bf71"/>
  <rect id="Rectangle_105" data-name="Rectangle 105" width="9.345" height="5.34" transform="translate(898.418 593.055) rotate(124.156)" fill="#00bf71"/>
  <rect id="Rectangle_106" data-name="Rectangle 106" width="1525.075" height="3.848" transform="translate(0 829.944)" fill="#3f3d56"/>
</svg>
