<svg xmlns="http://www.w3.org/2000/svg" width="1506.669" height="1312.374" viewBox="0 0 1506.669 1312.374">
  <g id="Group_22" data-name="Group 22" transform="translate(0)">
    <path id="Path_189" data-name="Path 189" d="M542.623,882.745a6.992,6.992,0,0,1-5.067-12.119l.479-1.9q-.095-.229-.19-.457a18.776,18.776,0,0,0-34.635.129c-5.665,13.643-12.877,27.31-14.653,41.736a55.548,55.548,0,0,0,.975,19.1,222.7,222.7,0,0,1-20.258-92.5,214.959,214.959,0,0,1,1.333-23.98q1.1-9.791,3.065-19.443a225.284,225.284,0,0,1,44.676-95.481,59.955,59.955,0,0,0,24.935-25.87,45.727,45.727,0,0,0,4.159-12.5c-1.214.159-2.448.259-3.662.338l-1.154.06-.143.006a6.927,6.927,0,0,1-5.689-11.286l1.573-1.934c.8-1,1.612-1.97,2.408-2.965a3.468,3.468,0,0,0,.259-.3c.916-1.134,1.831-2.249,2.746-3.383a20.031,20.031,0,0,0-6.567-6.348c-9.174-5.373-21.831-1.652-28.457,6.646-6.647,8.3-7.9,19.94-5.592,30.308a80.276,80.276,0,0,0,11.1,24.756c-.5.637-1.015,1.254-1.513,1.891a226.721,226.721,0,0,0-23.666,37.492,94.258,94.258,0,0,0-5.627-43.78c-5.386-12.994-15.482-23.937-24.373-35.17-10.679-13.493-32.577-7.6-34.459,9.5q-.027.248-.053.5,1.981,1.117,3.878,2.372a9.484,9.484,0,0,1-3.824,17.259l-.193.03a94.381,94.381,0,0,0,2.488,14.109A97.16,97.16,0,0,0,475.3,760.461c.776.4,1.533.8,2.309,1.174a231.43,231.43,0,0,0-12.458,58.626,219.5,219.5,0,0,0,.159,35.442l-.06-.418a58,58,0,0,0-19.8-33.492c-15.238-12.517-36.766-17.127-53.2-27.188a10.886,10.886,0,0,0-16.672,10.59q.033.22.067.439a63.668,63.668,0,0,1,7.144,3.443q1.981,1.118,3.878,2.372a9.484,9.484,0,0,1-3.824,17.26l-.193.03c-.139.02-.259.04-.4.06A94.446,94.446,0,0,0,399.622,856a97.246,97.246,0,0,0,70.526,30.945h.02a231.376,231.376,0,0,0,15.542,45.372h55.521c.2-.617.378-1.254.557-1.871a63.075,63.075,0,0,1-15.363-.915c4.119-5.055,8.239-10.149,12.358-15.2a3.458,3.458,0,0,0,.259-.3c2.089-2.587,4.2-5.154,6.288-7.741v0a92.4,92.4,0,0,0-2.708-23.539Z" transform="translate(-56.613 375.575)" fill="#f2f2f2"/>
    <path id="Path_190" data-name="Path 190" d="M623.336,242.172c0,37.405-18.712,75.469-56.118,75.469S478.2,290.55,489.814,232.5c7.336-36.679,28.388-58.053,65.793-58.053A67.729,67.729,0,0,1,623.336,242.172Z" transform="translate(48.743 -51.486)" fill="#2f2e41"/>
    <path id="Path_191" data-name="Path 191" d="M494.6,535.77a20.823,20.823,0,0,0-4.456-31.618l16.374-72.166-35.991,13.542L460.5,511.982a20.936,20.936,0,0,0,34.1,23.788Z" transform="translate(20.57 189.342)" fill="#ffb8b8"/>
    <path id="Path_192" data-name="Path 192" d="M574.471,419.3l-25.121,2.557s6.57,37.213-3.7,45.6-6.133,8.342-6.073,14.555-3.982,16.605-12.206,22.9S502.042,623.25,502.042,623.25l-37.273.358a116.778,116.778,0,0,0-.278-28.99c-2.21-14.475-13.381-50.937-9.3-57.189s1.933-17.749,1.814-30.173,17.654,1.3,17.456-19.4,22.6-150.642,20.349-169.259,20.369-35.4,20.369-35.4l20.707-.2Z" transform="translate(17.093 50.02)" fill="#54a591"/>
    <path id="Path_193" data-name="Path 193" d="M684.146,270.694a19.73,19.73,0,0,1-18.421,24l-20.152,67.155L622.2,333.894l22.719-59.486a19.837,19.837,0,0,1,39.222-3.714Z" transform="translate(174.098 23.88)" fill="#ffb8b8"/>
    <path id="Path_194" data-name="Path 194" d="M546.178,275.064S594.9,256.8,621.308,356.83l35.062,36.313,29.457-53.227-3.895-12.627L704.7,275.679l39.032,22.4-9.608,35.434,1.623,17.517-9.327,10.895L711.15,418.232l-9.551,18.4s-12.045,23.555-33.072,27.434a54.445,54.445,0,0,1-17,.482c-11.073-1.446-23.207-6.549-35.678-17.812-46.265-41.786-73.627-74.021-73.627-74.021Z" transform="translate(99.309 41.382)" fill="#54a591"/>
    <path id="Path_195" data-name="Path 195" d="M707.927,328l-86.725-83.7a2.566,2.566,0,0,1,3.359-3.871l91.955,71.64Z" transform="translate(172.428 9.717)" fill="#3f3d56"/>
    <path id="Path_196" data-name="Path 196" d="M704.511,304.366a58.541,58.541,0,0,1-13.452,3.005c-2.334.229-4.676.312-7,.34-.815.028-1.642.032-2.45.042-1.93.028-3.859.057-5.807.079-1.642.032-3.3.057-4.937.071-2.407.037-5.051-.013-6.777-1.7a7.583,7.583,0,0,1-1.7-6.264,25.531,25.531,0,0,1,2.081-6.679c2.081-5.007,4.18-10.008,6.261-15.015l-.324-2.8a33.109,33.109,0,0,1,11.487.353,11.813,11.813,0,0,1,7.364,5.636,9.946,9.946,0,0,1,.781,1.96c.814,2.984.228,6.3.578,9.417a16.093,16.093,0,0,0,.359,1.928,13.114,13.114,0,0,0,6.962,8.727A12.113,12.113,0,0,0,704.511,304.366Z" transform="translate(211.561 42.633)" fill="#ccc"/>
    <path id="Path_197" data-name="Path 197" d="M690.2,288.967a13.906,13.906,0,0,1-6.1,2.426A65.3,65.3,0,0,0,690.2,288.967Z" transform="translate(231.974 55.605)" fill="#e6e6e6"/>
    <path id="Path_198" data-name="Path 198" d="M697.97,301.307a58.537,58.537,0,0,1-13.452,3.005c-2.334.229-4.676.312-7,.34-.815.028-1.642.032-2.451.042-1.929.028-3.859.057-5.807.079a28.3,28.3,0,0,1,.439-2.912c1.82-8.983,7.1-16.622,13.011-23.494a9.932,9.932,0,0,1,.781,1.96c.814,2.984.228,6.3.578,9.417a16.177,16.177,0,0,0,.359,1.928,13.116,13.116,0,0,0,6.963,8.727A12.114,12.114,0,0,0,697.97,301.307Z" transform="translate(218.103 45.692)" fill="#54a591"/>
    <path id="Path_199" data-name="Path 199" d="M302.881,264.4l-3.447,16.423L296.5,341.4,414.229,325.46l9.039-70.143-12.495-20.531Z" transform="translate(277.262 219.547)" fill="#ffb6b6"/>
    <circle id="Ellipse_21" data-name="Ellipse 21" cx="55.716" cy="55.716" r="55.716" transform="translate(542.714 231.627) rotate(-61.337)" fill="#ffb7b7"/>
    <path id="Path_200" data-name="Path 200" d="M494.259,383.13l-15.32-39.805a73.707,73.707,0,0,1,57.08-71.842l.21-.049,11.017-14.844,44.761,4.478,8.2,16.767,32.434,19.313,36.888,43.194c11.617,8.342,18.519,19.038,20.514,31.794,4.24,27.081-14.721,54.177-16.977,57.284l-5.811,32.729L532.893,481.4l-1.026.13Z" transform="translate(40.13 25.328)" fill="#54a591"/>
    <path id="Path_201" data-name="Path 201" d="M500.926,267.322c.505-.08,1.01-.186,1.515-.266,8.691-1.541,17.382-3.056,26.046-4.624l.8-19.64,10.5,17.594c23.946,7.947,46.351,3.455,67.427-6.458a190.368,190.368,0,0,0,20.2-11.136c4.534-27.665-6.9-49.468-36.278-52.251-.912-.086-1.568-.85-2.365-1.249a.026.026,0,0,1-.019-.008.027.027,0,0,1-.008-.019c-1.355-.638-2.738-1.249-4.12-1.807a61.373,61.373,0,0,0-64.424,12.491C503.185,216.187,495.531,243,500.926,267.322Z" transform="translate(59.094 -43.255)" fill="#2f2e41"/>
    <path id="Path_202" data-name="Path 202" d="M342.209,664.128l31.964,14.687,71.862-116.3-47.176-21.677Z" transform="translate(319.999 505.735)" fill="#ffb6b6"/>
    <path id="Path_203" data-name="Path 203" d="M572.614,705.421l51.914,20.2-9.948,21.649,32.792,55.253a14.882,14.882,0,0,1-19.012,21.119L568.205,796l-.528-26.179-13.889,19.553-22.681-10.423Z" transform="translate(88.912 445.03)" fill="#2f2e41"/>
    <path id="Path_204" data-name="Path 204" d="M270,707.406h35.178l16.735-135.685-51.919,0Z" transform="translate(252.475 534.616)" fill="#ffb6b6"/>
    <path id="Path_205" data-name="Path 205" d="M471.543,817.111v-.363l13.213-22.77-13.493-29.64L470.3,584.2c-5.314-130.177,70.208-192.754,70.8-193.369l1.638-1.7,121.118-2.964s63.658,186.879,114.23,355.265c2.989,9.952,11.442,19.768,8.814,29.62-20.853,78.15-45.6,166.6-61.49,169.1L675.1,913.055l9.351-135.441-5.749-14.74c-10.3-1.9-37.072-105.8-37.072-105.8-4.487-5.328-4.257-19.814-4.257-19.814L602.31,600.44,569.987,770.151l7.993,50.619-6.614,17.405L543.04,981.864l-.3,2.315-53.4-5.331Z" transform="translate(31.806 146.492)" fill="#2f2e41"/>
    <path id="Path_206" data-name="Path 206" d="M477.934,745.378l55.608-3.319v23.825L586.41,802.4a14.882,14.882,0,0,1-8.456,27.129h-66.2l-11.411-23.567-4.455,23.567H470.922Z" transform="translate(32.634 479.291)" fill="#2f2e41"/>
    <path id="Path_207" data-name="Path 207" d="M544.129,207.728v.047a33.7,33.7,0,0,1-1.107,8.641c-.118.495-.259,1.012-.424,1.507v.024a34.181,34.181,0,0,1-21.074,21.945c-.73.283-1.483.518-2.237.73a30.537,30.537,0,0,1-4.851.989,30.955,30.955,0,0,1-4.45.306,33.886,33.886,0,0,1-3.485-.165,32.973,32.973,0,0,1-7.935-1.813,9.973,9.973,0,0,1-1.177-.424,5.743,5.743,0,0,1-.565-.235,34.176,34.176,0,0,1-17.636-46.268l.023-.024a33.492,33.492,0,0,1,6.711-9.418c6.169-6.145,8.888-21.547,18.259-21.547a12.811,12.811,0,0,1,1.342.047c6.287.212,17.908,13.777,22.853,16.979a33.328,33.328,0,0,1,9.371,8.877,33.748,33.748,0,0,1,5.51,12.15A34.179,34.179,0,0,1,544.129,207.728Z" transform="translate(37.238 -63.103)" fill="#2f2e41"/>
    <path id="Path_208" data-name="Path 208" d="M581.4,203.789c-5.3,6.173-13.6,8.572-21.093,11.785A88.734,88.734,0,0,0,508.759,280.4c-2.07,11.553-1.8,23.511-5.07,34.774-3.251,11.262-11.3,22.312-22.854,24.266-7.818,1.335-15.655-1.684-23.008-4.664q-6.066-2.438-12.133-4.9Q452.021,314,458.33,298.125a160.914,160.914,0,0,1-23.434,27.42q-21.741-8.766-43.52-17.532c35.722.135,29.626-34.542,37.618-69.335,4.393-19.119,41.8-32.065,49.132-50.255a55.647,55.647,0,0,1,100.935-5.07C586.395,186.277,586.608,197.694,581.4,203.789Z" transform="translate(-41.75 -71.053)" fill="#2f2e41"/>
    <path id="Path_209" data-name="Path 209" d="M568.966,408.024a52.732,52.732,0,0,1,36.159,32.753c1.589,4.583,2.581,10.016-.152,14.373a7.329,7.329,0,0,1-9.009,3.416c-3.568-1.469-6.025-5.118-7.84-8.35a105.773,105.773,0,0,1-6.181-14.178c-2.8-7.349-8.782-19.618-.245-25.363,7.18-4.833,16.685-2.955,24.763-3.287,8.73-.358,18.432-3.7,21.533-12.749,3.016-8.8-4.055-17.076-11.677-20.422a30.347,30.347,0,0,0-28.33,2.7,41.078,41.078,0,0,0-16.448,23.793,2.905,2.905,0,0,0,5.6,1.543c2.4-8.751,7.582-16.984,15.672-21.469,7.574-4.2,17.962-4.457,25.029.978,3.5,2.688,6.24,7.162,4.45,11.6-1.643,4.077-5.921,6.5-9.993,7.486-9.211,2.227-18.844-.655-28.025,2.287-8.755,2.805-13.8,9.967-12.537,19.258a69.854,69.854,0,0,0,4.612,15.186,131.2,131.2,0,0,0,6.273,14.655c3.645,6.889,10.217,14.346,18.89,12.326,9.885-2.3,12.232-13.843,10.113-22.331-4.831-19.355-22.169-34.859-41.112-39.805a2.905,2.905,0,0,0-1.543,5.6Z" transform="translate(122.409 133.158)" fill="#2f2e41"/>
    <path id="Path_210" data-name="Path 210" d="M652.1,680.42c-4.1-4.853-9.958-7.814-15.646-10.648L588.729,646l-1.359,8.471c-1.8-5.571-10.662-5.981-14.253-1.355s-2.442,11.619,1.06,16.313,8.82,7.623,13.97,10.41l34.259,18.541c5.32,2.879,10.813,5.814,16.826,6.472s12.75-1.51,15.747-6.765C658.127,692.564,656.207,685.273,652.1,680.42Z" transform="translate(126.146 389.465)" fill="#2f2e41"/>
    <path id="Path_211" data-name="Path 211" d="M557.065,687.891c-5.839-2.509-12.4-2.544-18.755-2.54l-53.321.042,2.567,8.186c-4.1-4.179-12.211-.59-13.357,5.153s3,11.487,8.234,14.122,11.3,2.881,17.148,3.076l38.933,1.29c6.046.2,12.271.373,17.945-1.724s10.734-7.045,11.068-13.085C567.878,696.066,562.9,690.4,557.065,687.891Z" transform="translate(35.518 426.263)" fill="#2f2e41"/>
    <path id="Path_212" data-name="Path 212" d="M925.192,595.572c-78.2,0-163.184-15.584-247.594-45.549C573.213,512.966,477.5,457.034,400.817,388.27l2.271-4.554c76.318,68.431,171.6,124.108,275.556,161.01,93.94,33.351,188.586,48.8,273.668,44.725l.148,5.475Q938.981,595.575,925.192,595.572Z" transform="translate(-32.922 144.204)" fill="#f0f0f0"/>
    <path id="Path_213" data-name="Path 213" d="M370.515,565.289c-62.659-82.714-37.81-177.119-74.52-242.977C155.3,69.9,328.546,93.154,524.418,142.24l.467,5.445c-124.665,19.239-206.652,83.4-224.939,176.029-14.212,71.988,11.868,156.4,73.437,237.671Z" transform="translate(-178.837 -110.903)" fill="#f0f0f0"/>
    <path id="Path_214" data-name="Path 214" d="M875.563,599.82c-78.2,0-168.077-86.782-247.594-45.549C387.214,679.111,420.355,470.21,351.188,392.518l2.271-4.555c76.318,68.431,171.6,124.108,275.556,161.01,93.94,33.351,188.586,48.8,273.668,44.725l.148,5.475Q889.353,599.823,875.563,599.82Z" transform="translate(-79.329 148.176)" fill="#f0f0f0"/>
    <path id="Path_215" data-name="Path 215" d="M861.483,790.138l-1.309-5.191c69.942-31.71,63.932-126.159,126.508-147.727,476.681-164.3,6.145-182.825-99.693-269.731C792.342,289.773,689.194,199.418,558.1,152.882l1.046-5.3c131.662,46.74,249.029,123.351,330.476,215.721,81.858,92.833,117.73,190.609,101.006,275.316C977.445,705.419,932.785,757.812,861.483,790.138Z" transform="translate(114.158 -76.602)" fill="#f0f0f0"/>
    <path id="Path_216" data-name="Path 216" d="M544.114,661.421C459.936,523.791,348.1,400.854,210.7,327.568l3.4-3.032C275.021,447.581,392.809,565.442,545.77,656.413Z" transform="translate(-210.7 88.865)" fill="#f0f0f0"/>
    <path id="Path_217" data-name="Path 217" d="M685.562,611.214q-23.775,0-48.361-1.423l.175-5.475c120.9,68.784,228.748,52.426,312.132-56.777l1.528,5.084C879.607,591.218,788.563,611.214,685.562,611.214Z" transform="translate(188.121 297.395)" fill="#f0f0f0"/>
    <ellipse id="Ellipse_22" data-name="Ellipse 22" cx="16.347" cy="21.92" rx="16.347" ry="21.92" transform="translate(882.114 812.377)" fill="#fd6584"/>
    <ellipse id="Ellipse_23" data-name="Ellipse 23" cx="16.347" cy="21.92" rx="16.347" ry="21.92" transform="translate(300.436 464.796) rotate(-81.367)" fill="#e6e6e6"/>
    <ellipse id="Ellipse_24" data-name="Ellipse 24" cx="16.347" cy="21.92" rx="16.347" ry="21.92" transform="translate(254.632 173.534)" fill="#e6e6e6"/>
    <path id="Path_218" data-name="Path 218" d="M425.718,306.345c-21.318-29.711-61.555-45.065-89.871-34.294s-33.988,43.59-12.67,73.3,84.072,76.447,112.388,65.676S447.037,336.057,425.718,306.345Zm.131,91.385c-3.486,5.11-12.037,5.347-19.1.529s-9.963-12.866-6.478-17.976,12.037-5.347,19.1-.529S429.335,392.62,425.85,397.73Z" transform="translate(-117.594 36.568)" fill="#3f3d56"/>
    <path id="Path_219" data-name="Path 219" d="M386.137,324.357l-7.965,6.438a31.379,31.379,0,0,1-11.32,6.691,30.791,30.791,0,0,1-17.376-1.035,41.606,41.606,0,0,1-20.393-14.491l5.739,1.28a44.735,44.735,0,0,1-7.337-11.791c-1.346-3.98-.595-8.019,3.038-9.109,4.158-1.248,10.853,1.557,14.344-.459,6.037-3.487-3.888-16.473,1.614-20.479,3.206-2.334,9.62-.025,14.967,2.265a84.312,84.312,0,0,1,18.759,10.016c9.5,7.335,14.756,18.9,10.878,25.587A19.642,19.642,0,0,1,386.137,324.357Z" transform="translate(-102.078 47.62)" fill="#54a591"/>
    <path id="Path_220" data-name="Path 220" d="M364.615,332.918c-4.643.636-10.015-2.934-14.495-6.226l-1.141-1.493a24.206,24.206,0,0,1-1.157-8.866,6.153,6.153,0,0,1,5.23-5.619c2.723-.359,6.358.816,8.157-.76,3.478-3.047-4.588-11.444-.9-14.3,2.07-1.6,6.467.451,8.364,3.2a14.472,14.472,0,0,1,2.046,8.533q.092,6.581.184,13.161a22.1,22.1,0,0,1-.775,7.694A6.816,6.816,0,0,1,364.615,332.918Z" transform="translate(-82.512 61.338)" fill="#2f2e41"/>
    <path id="Path_221" data-name="Path 221" d="M373.5,341.9c-6.435-1.9-16.249-8.533-24.608-14.389l-2.488-2.165a45.233,45.233,0,0,1-6.57-9.767c-.965-2.642.277-4.185,4.55-2.909,3.782,1.129,9.74,4.339,11.5,3.707,3.406-1.223-13-14.311-9.182-15.217,2.144-.509,9.7,4.024,13.985,7.9a33.955,33.955,0,0,1,7.686,9.914l7.513,13.656a20.973,20.973,0,0,1,3.1,7.5C379.041,342.067,377.406,343.056,373.5,341.9Z" transform="translate(-90.235 66.972)" fill="#ff6584"/>
    <path id="Path_222" data-name="Path 222" d="M827.954,144.82c2.525-31.962,23.677,5.753,55.639,8.278a58.053,58.053,0,1,1-9.143,115.745C842.487,266.318,825.429,176.782,827.954,144.82Z" transform="translate(366.264 -91.145)" fill="#54a591"/>
    <path id="Path_223" data-name="Path 223" d="M930.754,341.352a58.053,58.053,0,0,1,62.445-53.3c31.962,2.525,53.343-60.947,50.818-28.985s-28,147.255-59.961,144.73a58.053,58.053,0,0,1-53.3-62.444Z" transform="translate(462.451 19.212)" fill="#54a591"/>
    <path id="Path_224" data-name="Path 224" d="M1217.842,501.706c-8.738,4.212-18.833,1.729-26.378-3.834-8.581-6.327-12.811-16.392-14.209-26.716a82.229,82.229,0,0,1,2.72-33.033c2.982-10.334,9.375-21.058,20.795-23.19,7.612-1.421,15.734,1.827,17.844,9.731a19.032,19.032,0,0,1-4.888,18.018c-6.831,6.563-17.8,6.064-25.73,1.892-9.332-4.906-14.481-14.722-16.18-24.815-2.02-12,.8-24.056,4.817-35.345,4.364-12.269,9.8-24.171,14.791-36.192,9.735-23.443,18.881-47.391,22.758-72.6,5.923-38.511-3.3-84.216-37.064-107.791-18.226-12.726-41.084-16.332-62.829-13.592-22.932,2.889-44.005,12.951-62.666,26.275a266.048,266.048,0,0,0-27.593,23.058,19,19,0,0,1-20.7,4.387c-17.945-7.3-12.226-36.5,6.272-38.68,8.405-.989,17.061,3.7,22.762,9.56A45.058,45.058,0,0,1,1044,202.868c3.164,18.948-3.861,38.977-16.064,53.461-13.786,16.363-34.736,25.574-55.131,30.426-23.22,5.524-47.1,5.806-70.837,6.331-24.289.537-48.866,1.46-72.309,8.429a178.687,178.687,0,0,0-52.685,25.89,186.647,186.647,0,0,0-68.947,93.038,170.988,170.988,0,0,0-6.521,27.835c-.548,3.7,5.242,4.139,5.787.457,6.1-41.168,28.393-79.026,59.724-106.127A177.017,177.017,0,0,1,819.883,310.9c23.295-8.838,48.039-11.079,72.762-11.8,25.25-.737,50.729-.336,75.6-5.391,21.989-4.469,44.256-13.235,60.278-29.47,14.127-14.315,22.866-34.794,21.929-55.033-.872-18.832-11.244-38.969-30.459-44.565-9.016-2.626-18.695-.955-25.392,5.928a29.278,29.278,0,0,0-6.336,29.98,24.288,24.288,0,0,0,29.713,13.485,29.561,29.561,0,0,0,11.135-7.28c18.143-16.989,38.447-32.58,62.072-41.04,22.036-7.891,47.384-9.509,69.31-.409,41.509,17.229,53.982,67.229,48.18,107.957-3.8,26.654-13.888,51.892-24.21,76.582-5.271,12.608-11.129,25.135-15.164,38.21-3.612,11.707-5.427,24.27-2.464,36.332,2.586,10.527,8.707,20.2,18.5,25.3,8.894,4.632,20.18,5.432,28.894-.077,12.6-7.965,15.432-29.957,1.282-37.971-9.389-5.317-21.411-2.705-29.2,4.279-8.73,7.83-12.3,19.555-14.1,30.776-3.4,21.2-.728,47.313,20.214,58.656,8.628,4.673,18.914,5.935,27.934,1.587a2.9,2.9,0,0,0-2.526-5.228Z" transform="translate(248.221 -71.184)" fill="#3f3d56"/>
    <path id="Path_225" data-name="Path 225" d="M714.772,399.1c2.678-33.894-43.7-124.52-23.748-149.052q3.712-4.6,7.788-8.9a159.839,159.839,0,0,1,29.474-24.673c1.823-1.215,3.662-2.37,5.516-3.485a162.9,162.9,0,0,1,20.52-10.356c1.284-.52,2.586-1.038,3.889-1.556a161.592,161.592,0,0,1,162.3,274.389c-1.54,1.315-3.116,2.588-4.729,3.839a160.934,160.934,0,0,1-53.715,27.572c-.019,0-.021.018-.04.016a162.223,162.223,0,0,1-89.537.4l-.039,0c-.645-.187-1.29-.374-1.934-.58C698.878,485.543,708.654,476.551,714.772,399.1Z" transform="translate(233.776 -36.78)" fill="#54a591"/>
    <path id="Path_226" data-name="Path 226" d="M721.279,198.1a3.069,3.069,0,0,1,.077-.731c1.283-.52,2.586-1.038,3.889-1.556a2.9,2.9,0,0,1,1.821,2.745,39.652,39.652,0,0,0,1,8.717c5.609,24.824,31.021,39.293,53.708,45.492,27.759,7.609,57.586,7.713,83.481,21.464A73.318,73.318,0,0,1,892,297.108a52.1,52.1,0,0,1,8.489,36.29c-3.958,29.949-27.017,51.81-36.513,79.613-3.913,11.454-4.877,23.646-.424,35.1,3.774,9.732,11.225,18.609,21.937,20.62a2.811,2.811,0,0,1,2.058,1.463c-1.54,1.315-3.116,2.588-4.729,3.839a28.21,28.21,0,0,1-5.612-1.938c-10.251-4.886-16.877-14.63-20.193-25.238-3.825-12.279-2.369-25.053,1.914-37,9.985-27.862,34.662-50.779,36.2-81.541,1.33-26.663-20.586-45.088-43.45-53.96-28.289-10.97-60-9.34-87.872-21.655C741.879,243.01,721.381,223.591,721.279,198.1Z" transform="translate(266.742 -31.508)" fill="#3f3d56"/>
    <path id="Path_227" data-name="Path 227" d="M708.1,205.449c1.823-1.215,3.662-2.37,5.516-3.485a2.415,2.415,0,0,1,.487,1.941A98.235,98.235,0,0,0,732.78,273.96a97.053,97.053,0,0,0,23.364,22.693c9.43,6.432,20.033,10.318,30.5,14.677,10.3,4.288,20.713,9.323,28.173,17.852,7.6,8.695,10.792,19.914,11.136,31.278.8,26.929-14.5,50.411-17.661,76.619-1.409,11.691.275,23.3,6.8,33.3,5.646,8.638,14.486,14.926,25.1,14.522,3.506-.15,3.277,4.956.19,5.7a3.1,3.1,0,0,1-.647.085c-12.343.461-22.905-7.128-29.434-17.116-7.6-11.607-9.484-25.169-7.558-38.74,3.744-26.259,19.637-50.529,17.241-77.7a40.779,40.779,0,0,0-15.2-29.464c-9.18-7.15-20.392-10.928-31.03-15.34a107.592,107.592,0,0,1-29.319-17.34,106.222,106.222,0,0,1-21.76-25.809A102.907,102.907,0,0,1,708.1,205.449Z" transform="translate(253.957 -25.752)" fill="#3f3d56"/>
    <path id="Path_228" data-name="Path 228" d="M689.251,225.411q3.712-4.6,7.788-8.9a109.809,109.809,0,0,0-1.885,45.235,113.979,113.979,0,0,0,22.57,51.922,99.855,99.855,0,0,0,20.647,19.742c8.914,6.334,18.765,11.867,24.669,21.418,12.8,20.733,1.1,45.548-5.195,66.248-3.3,10.8-5.536,22.41-1.883,33.413,2.839,8.532,9.135,16.813,18.435,18.5,3.656.658,3.216,6.466-.457,5.787q-1.032-.2-2.061-.454c-10.1-2.661-17.384-10.924-20.923-20.676-4.585-12.727-2.437-25.912,1.415-38.555,6.34-20.793,19.377-47.968,1.393-66.781-7.584-7.937-17.856-12.8-26.142-19.962a107.9,107.9,0,0,1-19.39-21.894,121.11,121.11,0,0,1-18.982-85.046Z" transform="translate(235.548 -12.145)" fill="#3f3d56"/>
    <path id="Path_229" data-name="Path 229" d="M843.606,479.07v-3.728H781.115v-86.96H777.4v86.96H705.778V408.187q-1.878,1.477-3.709,3.039v64.116h-47.3c-.526,1.233-1.032,2.475-1.51,3.728h48.813v73.072H641.461c.057,1.252.143,2.485.249,3.728h60.359v58.295H656.85c.554,1.252,1.137,2.485,1.749,3.709h43.47v49h3.709v-49H777.4v49h3.718v-49h62.491v-3.709H781.115a58.286,58.286,0,0,1,58.307-58.295h4.185v-3.728H781.115V479.07ZM777.4,614.165H705.778V555.87H777.4Zm0-62.023H705.778V550.68a71.613,71.613,0,0,1,71.615-71.61Z" transform="translate(192.105 148.568)" fill="#3f3d56"/>
    <path id="Path_230" data-name="Path 230" d="M913.536,791.017l-533.6.595a2.3,2.3,0,0,1,0-4.608l533.6-.595a2.3,2.3,0,0,1,0,4.608Z" transform="translate(-54.606 520.762)" fill="#cacaca"/>
  </g>
</svg>
