<svg xmlns="http://www.w3.org/2000/svg" xmlns:xlink="http://www.w3.org/1999/xlink" width="1633.431" height="1157.197" viewBox="0 0 1633.431 1157.197">
  <defs>
    <linearGradient id="linear-gradient" x1="0.5" y1="1" x2="0.5" gradientUnits="objectBoundingBox">
      <stop offset="0" stop-color="gray" stop-opacity="0.251"/>
      <stop offset="0.54" stop-color="gray" stop-opacity="0.122"/>
      <stop offset="1" stop-color="gray" stop-opacity="0.102"/>
    </linearGradient>
    <linearGradient id="linear-gradient-2" x1="0.5" y1="1" x2="0.5" y2="0" xlink:href="#linear-gradient"/>
  </defs>
  <g id="Group_20" data-name="Group 20" transform="translate(0.005 0.006)">
    <ellipse id="Ellipse_12" data-name="Ellipse 12" cx="144.053" cy="23.137" rx="144.053" ry="23.137" transform="translate(398.845 1110.267)" fill="#54a591" opacity="0.1"/>
    <ellipse id="Ellipse_13" data-name="Ellipse 13" cx="179.756" cy="23.137" rx="179.756" ry="23.137" transform="translate(1146.196 1110.917)" fill="#54a591" opacity="0.1"/>
    <path id="Path_60" data-name="Path 60" d="M62.075,396.83H212.116v204.5H73.059c-.37,2.1-.724,4.213-1.109,6.328H212.116V772.59c-.251-.074-.473-.162-.71-.251-3.962-1.567-7.895-3.223-11.827-5l-2.513-1.138q-5.914-2.794-11.827-5.914c-1.375-.724-2.75-1.478-4.11-2.247a246.033,246.033,0,0,1-58.958-46.066c-.5-.488-.976-1.005-1.478-1.478-2.395-2.6-4.746-5.233-7.022-7.924l-2.513-2.957c-2.691-3.3-5.293-6.682-7.821-10.112-.37-.5-.724-1.005-1.109-1.479A220.106,220.106,0,0,1,76.8,642.049c-.207-.488-.384-1.02-.577-1.478q-3.045-7.836-5.4-15.819c-.68-2.232-1.331-4.435-1.892-6.756-.207-.68-.384-1.345-.547-2.011C59.991,583.21,59,549.162,59,515.352V503.525c0-13.675.163-27.439.4-41.188,0-3.563.148-7.111.222-10.689q.31-13.616.887-27.232c.089-2.528.207-5.041.34-7.554a42.79,42.79,0,0,1,.222-4.346C61.425,407.253,61.72,402.034,62.075,396.83Z" transform="translate(-41.844 103.161)" fill="#54a591" opacity="0.1"/>
    <path id="Path_61" data-name="Path 61" d="M189.2,276.469H106.9a623.89,623.89,0,0,1,43.775-60.259c12.226-15.02,25.132-29.656,38.526-43.76Z" transform="translate(-18.929 -4.178)" fill="#54a591" opacity="0.1"/>
    <path id="Path_62" data-name="Path 62" d="M210.968,247.09V462.135H61.4c0-.621.1-1.257.148-1.878.133-1.7.266-3.4.414-5.086.163-1.981.34-3.977.532-5.914s.4-4.3.621-6.446.429-4.317.68-6.461.473-4.287.739-6.416.5-4.287.784-6.416c.222-1.774.458-3.534.695-5.307.34-2.5.695-5.012,1.079-7.5a6.908,6.908,0,0,1,.163-1.109,511.374,511.374,0,0,1,11.014-53.991,399.288,399.288,0,0,1,18.554-54.7,410.63,410.63,0,0,1,27.912-53.754Z" transform="translate(-40.696 31.529)" fill="#54a591" opacity="0.1"/>
    <path id="Path_63" data-name="Path 63" d="M186.8,558.607V763.126H507.269V558.607Zm0,210.832V945.07c1.833.384,3.652.754,5.455,1.064,2.454.473,4.893.9,7.392,1.271.473.074.961.148,1.478.192.976.163,1.981.3,2.957.429,2.469.34,4.923.621,7.392.843,1.168.118,2.351.222,3.533.31l2.853.222h0c1.552.118,3.09.207,4.613.251.946,0,1.892.089,2.868.118h10.541c1.271,0,2.543,0,3.8-.118h.089a19.916,19.916,0,0,0,2.646-.118,6.222,6.222,0,0,0,.739,0,15.289,15.289,0,0,0,2.188-.1h.517l4.953-.384c1.626-.148,3.267-.34,4.923-.517l3.371-.4a294.847,294.847,0,0,0,40.582-8.634c29.893-8.338,59.135-20,89.013-28.547,38.63-11.014,81.311-16.425,118.64-2.957V769.439ZM507.269,330.921V58.648A411.982,411.982,0,0,0,403.146,70.859C322,91.246,249.188,135.464,186.8,191.939V330.906h16.085v6.313H186.8V552.294H507.269V337.234H268.924v-6.313Zm411.626-91.97c-20.076-.71-40.035-7.067-58.085-16.883-34.52-18.775-62.092-47.766-92.9-72.234C703.893,98.875,624.5,68.124,543.06,60.5V330.921h457.485l1.138-1.2Zm41.676-7.392,44.189,48.491v-61.2c-14.8,1.833-27.764,6.194-44.13,12.655Zm44.189,757.123V769.439H910.6c-.251-.931-.5-1.878-.8-2.824.281.946.517,1.892.783,2.824H543.119V927.995c3.489,2.587,6.934,5.307,10.349,8.072h0c3.681,2.957,7.318,6.076,10.97,9.136l3.681,3.046c1.759,1.478,3.533,2.957,5.322,4.346q5.322,4.317,10.748,8.515c1.789,1.479,3.622,2.809,5.44,4.2a740.993,740.993,0,0,0,91.113,59.594q10.689,5.914,21.57,11.546c4.834,2.469,9.7,4.923,14.577,7.3q11,5.367,22.176,10.349h0a814.361,814.361,0,0,0,215.844,62.875q24.822,3.667,49.836,5.766V988.668h1.479ZM543.119,337.234v215.06h461.7V337.234Zm0,221.373V763.126h461.7V558.607Zm497.534-340.028v68.272l56.4-61.885q-28.03-4.524-56.4-6.461Zm0,340.1V763.126h449.058V558.607Zm447.417,446.235,1.582-235.477h-449v355.654a805.326,805.326,0,0,0,86.781-1.035h.5q20.7-1.3,41.2-3.785h.311a758.77,758.77,0,0,0,211.7-56.489m195.146-471.5c-1.686-3.977-3.445-7.924-5.234-11.827-3.341-7.392-6.875-14.577-10.511-21.762h-35.037V763.126H1614.1c-.045-57.893-14.7-117.029-37.758-170.916Zm-50.782,177.228V972.051c24.955-23.92,46.037-51.285,61.22-82.568,18.258-37.669,26.611-78.458,27.291-120Zm0-270.425v53.222h31.755a576.594,576.594,0,0,0-31.711-53.3ZM1220.972,258.7c-2.336-.887-4.672-1.789-7.022-2.661a641.051,641.051,0,0,0-75.856-22.8l-86.308,94.72h0l-1.656,1.759,1.109,1.212h307.178a657.007,657.007,0,0,0-137.4-72.308Zm146.448,78.605H1046.951l-6.3,5.766v209.22h449.117V450.951a639.848,639.848,0,0,0-122.306-113.717Z" transform="translate(19.293 -58.63)" fill="#54a591" opacity="0.1"/>
    <path id="Path_64" data-name="Path 64" d="M210.968,320.46V427.037H61.4c0-.621.1-1.257.148-1.878.133-1.7.266-3.4.414-5.086.163-1.981.34-3.977.532-5.913s.4-4.3.621-6.446.429-4.317.68-6.461.473-4.287.739-6.416.5-4.287.784-6.416c.222-1.774.458-3.533.695-5.307.34-2.5.695-5.012,1.079-7.5a6.914,6.914,0,0,1,.163-1.109,511.37,511.37,0,0,1,11.014-53.99Z" transform="translate(-40.696 66.627)" fill="#54a591" opacity="0.1"/>
    <path id="Path_65" data-name="Path 65" d="M62.075,396.83H212.116v204.5H73.059c-.37,2.1-.724,4.213-1.109,6.328H212.116V772.59c-.251-.074-.473-.162-.71-.251-3.962-1.567-7.895-3.223-11.827-5l-2.513-1.138q-5.914-2.794-11.827-5.914c-1.375-.724-2.75-1.478-4.11-2.247a246.033,246.033,0,0,1-58.958-46.066c-.5-.488-.976-1.005-1.478-1.478-2.395-2.6-4.746-5.233-7.022-7.924l-2.513-2.957c-2.691-3.3-5.293-6.682-7.821-10.112-.37-.5-.724-1.005-1.109-1.479A220.106,220.106,0,0,1,76.8,642.049c-.207-.488-.384-1.02-.577-1.478q-3.045-7.836-5.4-15.819c-.68-2.232-1.331-4.435-1.892-6.756-.207-.68-.384-1.345-.547-2.011C59.991,583.21,59,549.162,59,515.352V503.525c0-13.675.163-27.439.4-41.188,0-3.563.148-7.111.222-10.689q.31-13.616.887-27.232c.089-2.528.207-5.041.34-7.554a42.79,42.79,0,0,1,.222-4.346C61.425,407.253,61.72,402.034,62.075,396.83Z" transform="translate(-41.844 103.161)" fill="#54a591" opacity="0.1"/>
    <path id="Path_66" data-name="Path 66" d="M252.375,229.468V413.733H139.56V229.468h16.085V167.08h66.025v62.388Z" transform="translate(66.533 79.931)" fill="#54a591" opacity="0.1"/>
    <rect id="Rectangle_60" data-name="Rectangle 60" width="112.8" height="204.504" transform="translate(206.108 499.977)" fill="#54a591" opacity="0.1"/>
    <path id="Path_67" data-name="Path 67" d="M186.8,539.44H299.615V709.454a294.368,294.368,0,0,1-40.581,8.619l-3.371.414c-1.656.192-3.3.355-4.923.517s-3.312.281-4.953.385h-.517c-.71,0-1.478.089-2.173.1h-.754c-.887,0-1.774.089-2.661.118h0c-1.257.074-2.513.089-3.8.1H225.415l-2.853-.1c-1.478,0-3.075-.163-4.613-.266h0l-2.839-.207-3.533-.325c-2.484-.222-4.953-.5-7.392-.843l-2.957-.414-1.478-.207c-2.469-.384-4.908-.8-7.392-1.271-1.818-.31-3.622-.695-5.455-1.064Z" transform="translate(19.293 171.383)" fill="#54a591" opacity="0.1"/>
    <rect id="Rectangle_61" data-name="Rectangle 61" width="93.02" height="206.012" transform="translate(931.091 287.637)" fill="#54a591" opacity="0.1"/>
    <path id="Path_68" data-name="Path 68" d="M842.293,338.19V542.709H380.58V454.494H626.509v52.039h122.75V338.19Z" transform="translate(181.833 161.787)" fill="#54a591" opacity="0.1"/>
    <path id="Path_69" data-name="Path 69" d="M891,759.627h-1.478V893.79q-24.985-2.114-49.821-5.751a814.391,814.391,0,0,1-215.932-63.009Q594,811.637,565.457,795.788a744.036,744.036,0,0,1-91.128-59.594q-10.881-8.338-21.481-17.06c-4.893-4.036-9.757-8.176-14.68-12.2-3.415-2.765-6.86-5.485-10.349-8.087v-158.5H795.272c-.251-.946-.5-1.892-.769-2.824.281.931.547,1.878.8,2.824h94.217V759.539C890.021,759.553,890.509,759.6,891,759.627Z" transform="translate(134.593 170.47)" fill="#54a591" opacity="0.1"/>
    <path id="Path_70" data-name="Path 70" d="M923.834,267.059H863.22V248.225h27.173v-56.1q3.533,1.286,7.037,2.646v53.458h26.4Z" transform="translate(342.88 5.232)" fill="#54a591" opacity="0.1"/>
    <path id="Path_71" data-name="Path 71" d="M1117.161,462.135H819.592l.1.074-.133-.074h-55.2V256.123H780V408.4h71.48V318.215h59.047V247.09h60.614v71.184h59.047v90.181h86.973Z" transform="translate(295.587 31.529)" fill="#54a591" opacity="0.1"/>
    <path id="Path_72" data-name="Path 72" d="M764.36,396.82V601.339h352.8V396.82Zm448.57,445.259.488-161.883h-96.257V607.755H764.36V963.306a805.3,805.3,0,0,0,86.781-1.035h.5q20.7-1.3,41.2-3.785h.31A758.767,758.767,0,0,0,1104.861,902" transform="translate(295.587 103.157)" fill="#54a591" opacity="0.1"/>
    <path id="Path_73" data-name="Path 73" d="M1098.579,539.44h82.3c-.724,41.528-9.062,82.316-27.306,119.985-15.183,31.3-36.279,58.662-61.205,82.568V611.9h6.209Z" transform="translate(452.5 171.383)" fill="#54a591" opacity="0.1"/>
    <path id="Path_74" data-name="Path 74" d="M1178.916,590.466H1096.57V419.55h44.558C1164.191,473.437,1178.842,532.572,1178.916,590.466Z" transform="translate(454.51 114.03)" fill="#54a591" opacity="0.1"/>
    <rect id="Rectangle_62" data-name="Rectangle 62" width="49.836" height="64.59" transform="translate(974.289 344.909)" fill="#54a591" opacity="0.1"/>
    <rect id="Rectangle_63" data-name="Rectangle 63" width="49.836" height="14.873" transform="translate(974.289 478.791)" fill="#54a591" opacity="0.1"/>
    <rect id="Rectangle_64" data-name="Rectangle 64" width="49.836" height="43.39" transform="translate(974.289 499.977)" fill="#54a591" opacity="0.1"/>
    <rect id="Rectangle_65" data-name="Rectangle 65" width="49.836" height="64.59" transform="translate(974.289 612.674)" fill="#54a591" opacity="0.1"/>
    <rect id="Rectangle_66" data-name="Rectangle 66" width="49.836" height="64.59" transform="translate(974.289 746.556)" fill="#54a591" opacity="0.1"/>
    <path id="Path_75" data-name="Path 75" d="M756.242,703.74a8.178,8.178,0,0,1,1.478.089h-1.478v15.005H706.42V654.17h49.821Z" transform="translate(267.869 226.268)" fill="#54a591" opacity="0.1"/>
    <path id="Path_76" data-name="Path 76" d="M756.242,744.71v49.9q-24.985-2.114-49.821-5.751V744.71Z" transform="translate(267.869 269.581)" fill="#54a591" opacity="0.1"/>
    <rect id="Rectangle_67" data-name="Rectangle 67" width="213.582" height="4.746" transform="translate(562.413 699.75)" fill="#54a591" opacity="0.1"/>
    <rect id="Rectangle_68" data-name="Rectangle 68" width="213.582" height="18.184" transform="translate(562.413 710.808)" fill="#54a591" opacity="0.1"/>
    <rect id="Rectangle_69" data-name="Rectangle 69" width="213.582" height="29.242" transform="translate(562.413 788.601)" fill="#54a591" opacity="0.1"/>
    <path id="Path_77" data-name="Path 77" d="M638.043,652.15v29.242H470.986q-10.881-8.309-21.5-17.061c-4.893-4.036-9.742-8.176-14.68-12.182Z" transform="translate(137.936 225.302)" fill="#54a591" opacity="0.1"/>
    <path id="Path_78" data-name="Path 78" d="M596.85,712.254v29.213H579.213q-29.73-13.409-58.292-29.257Z" transform="translate(179.13 254.033)" fill="#54a591" opacity="0.1"/>
    <rect id="Rectangle_70" data-name="Rectangle 70" width="42.045" height="42.045" transform="translate(1146.743 519.802)" fill="#54a591" opacity="0.1"/>
    <rect id="Rectangle_71" data-name="Rectangle 71" width="42.045" height="42.045" transform="translate(236.385 323.901)" fill="#54a591" opacity="0.1"/>
    <rect id="Rectangle_72" data-name="Rectangle 72" width="42.045" height="42.045" transform="translate(236.385 421.563)" fill="#54a591" opacity="0.1"/>
    <rect id="Rectangle_73" data-name="Rectangle 73" width="42.045" height="42.045" transform="translate(236.385 519.225)" fill="#54a591" opacity="0.1"/>
    <rect id="Rectangle_74" data-name="Rectangle 74" width="42.045" height="42.045" transform="translate(236.385 616.872)" fill="#54a591" opacity="0.1"/>
    <rect id="Rectangle_75" data-name="Rectangle 75" width="42.045" height="42.045" transform="translate(236.385 714.534)" fill="#54a591" opacity="0.1"/>
    <rect id="Rectangle_76" data-name="Rectangle 76" width="42.045" height="42.045" transform="translate(236.385 812.196)" fill="#54a591" opacity="0.1"/>
    <rect id="Rectangle_77" data-name="Rectangle 77" width="42.045" height="42.045" transform="translate(1307.25 519.802)" fill="#54a591" opacity="0.1"/>
    <rect id="Rectangle_78" data-name="Rectangle 78" width="42.045" height="42.045" transform="translate(1146.743 623.51)" fill="#54a591" opacity="0.1"/>
    <rect id="Rectangle_79" data-name="Rectangle 79" width="42.045" height="42.045" transform="translate(1307.25 623.51)" fill="#54a591" opacity="0.1"/>
    <rect id="Rectangle_80" data-name="Rectangle 80" width="42.045" height="42.045" transform="translate(1146.743 727.204)" fill="#54a591" opacity="0.1"/>
    <rect id="Rectangle_81" data-name="Rectangle 81" width="42.045" height="42.045" transform="translate(1307.25 727.204)" fill="#54a591" opacity="0.1"/>
    <rect id="Rectangle_82" data-name="Rectangle 82" width="42.045" height="42.045" transform="translate(1146.743 830.912)" fill="#54a591" opacity="0.1"/>
    <rect id="Rectangle_83" data-name="Rectangle 83" width="42.045" height="42.045" transform="translate(1307.25 830.912)" fill="#54a591" opacity="0.1"/>
    <rect id="Rectangle_84" data-name="Rectangle 84" width="42.045" height="42.045" transform="translate(1146.743 934.621)" fill="#54a591" opacity="0.1"/>
    <rect id="Rectangle_85" data-name="Rectangle 85" width="42.045" height="42.045" transform="translate(1307.25 934.621)" fill="#54a591" opacity="0.1"/>
    <path id="Path_79" data-name="Path 79" d="M775.83,729.444V702.33h42.03v23.255Z" transform="translate(370.913 335.984)" fill="#54a591" opacity="0.1"/>
    <path id="Path_80" data-name="Path 80" d="M65.24,357v24.053H209.131V357Zm14.34,22.545H67.842V358.478H79.669Zm14.326,0H82.079V358.478H93.906Zm14.3,0H96.375V358.478H108.2Zm14.326,0H110.715V358.478h11.827Zm14.311,0H125.011V358.478h11.827Zm14.326,0H139.336V358.478h11.827Zm14.325,0H153.662V358.478h11.827Zm14.311,0H167.973V358.478H179.8Zm14.311,0H182.283V358.478H194.11Zm14.311,0H196.594V358.478h11.827Z" transform="translate(-38.859 84.107)" fill="#54a591" opacity="0.1"/>
    <path id="Path_81" data-name="Path 81" d="M65.24,404.34v24.053H209.131V404.34Zm14.34,22.531H67.842V405.863H79.669Zm14.326,0H82.079V405.863H93.906Zm14.3,0H96.375V405.863H108.2Zm14.326,0H110.715V405.863h11.827Zm14.311,0H125.011V405.863h11.827Zm14.326,0H139.336V405.863h11.827Zm14.325,0H153.662V405.863h11.827Zm14.311,0H167.973V405.863H179.8Zm14.311,0H182.283V405.863H194.11Zm14.311,0H196.594V405.863h11.827Z" transform="translate(-38.859 106.754)" fill="#54a591" opacity="0.1"/>
    <path id="Path_82" data-name="Path 82" d="M65.24,451.7v24.1H209.131V451.7Zm14.34,22.531H67.842V453.208H79.669Zm14.326,0H82.079V453.208H93.906Zm14.3,0H96.375V453.208H108.2Zm14.326,0H110.715V453.208h11.827Zm14.311,0H125.011V453.208h11.827Zm14.326,0H139.336V453.208h11.827Zm14.325,0H153.662V453.208h11.827Zm14.311,0H167.973V453.208H179.8Zm14.311,0H182.283V453.208H194.11Zm14.311,0H196.594V453.208h11.827Z" transform="translate(-38.859 129.41)" fill="#54a591" opacity="0.1"/>
    <path id="Path_83" data-name="Path 83" d="M65.24,499.06v24.024H209.131V499.06Zm14.34,22.531H67.842V500.553H79.669Zm14.326,0H82.079V500.553H93.906Zm14.3,0H96.375V500.553H108.2Zm14.326,0H110.715V500.553h11.827Zm14.311,0H125.011V500.553h11.827Zm14.326,0H139.336V500.553h11.827Zm14.325,0H153.662V500.553h11.827Zm14.311,0H167.973V500.553H179.8Zm14.311,0H182.283V500.553H194.11Zm14.311,0H196.594V500.553h11.827Z" transform="translate(-38.859 152.066)" fill="#54a591" opacity="0.1"/>
    <path id="Path_84" data-name="Path 84" d="M65.66,546.41c.577,2.262,1.227,4.524,1.907,6.756v-5.248H79.394v21.023H73.067c.192.488.384,1.02.577,1.478H208.93V546.41Zm28.089,22.531H81.922V547.918H93.749Zm14.3,0H96.218V547.918h11.827Zm14.326,0H110.514V547.918h11.827Zm14.311,0H124.854V547.918h11.827Zm14.326,0H139.18V547.918h11.827Zm14.326,0H153.505V547.918h11.827Zm14.311,0H167.816V547.918h11.827Zm14.311,0H182.127V547.918h11.827Zm14.311,0H196.438V547.918h11.827Z" transform="translate(-38.658 174.717)" fill="#54a591" opacity="0.1"/>
    <path id="Path_85" data-name="Path 85" d="M88.26,593.77c.37.473.724,1.005,1.109,1.478h7.821v10.1c.843,1.005,1.671,2.01,2.528,2.957V595.189h11.827v21.1h-4.79c.473.488.931,1.005,1.478,1.478h89.93V593.77Zm37.566,22.516H114V595.278h11.827Zm14.326,0H128.324V595.278h11.827Zm14.326,0H142.65V595.278h11.827Zm14.311,0H156.96V595.278h11.827Zm14.311,0H171.271V595.278H183.1Zm14.311,0H185.582V595.278h11.827Z" transform="translate(-27.846 197.374)" fill="#54a591" opacity="0.1"/>
    <path id="Path_86" data-name="Path 86" d="M141.65,641.12c1.345.769,2.72,1.478,4.11,2.247v-.739h11.827v6.653l2.513,1.168v-7.821h11.827v12.788a3.691,3.691,0,0,0,.71.266V641.12Z" transform="translate(-2.306 220.025)" fill="#54a591" opacity="0.1"/>
    <path id="Path_87" data-name="Path 87" d="M1090.662,464.2ZM999.594,900.526ZM904.578,678.518c.281.946.517,1.892.784,2.824h0C905.125,680.41,904.874,679.464,904.578,678.518Zm186.084-214.365ZM197.72,242.78v6.313h66.039V242.78ZM999.594,900.526ZM904.578,678.518c.281.946.517,1.892.784,2.824h0C905.125,680.41,904.874,679.464,904.578,678.518Zm186.084-214.365ZM999.594,900.482ZM904.578,678.518c.281.946.517,1.892.784,2.824h0C905.125,680.41,904.874,679.464,904.578,678.518Z" transform="translate(24.517 29.467)" fill="#54a591" opacity="0.1"/>
    <path id="Path_88" data-name="Path 88" d="M610.84,543.611s-5.825-.813-5.825-9.3-4.169-24.334-4.169-24.334h0c0-.074-3.607-27.6-8.589-31.977s-11.383-30.07-11.383-30.07-1.094-13.941-3.326-16.942-5.248-10.349-9.7-20.831-23-17.741-23-17.741-33.545-19.456-43.051-25.8h0a14.588,14.588,0,0,1-2.41-1.818c-1.656-2.173-8.87-2.218-8.87-2.218A145.365,145.365,0,0,1,488.8,347.4a11.547,11.547,0,0,0-.074-1.6,51.152,51.152,0,0,0,22.486-27.823c.177-.562.325-1.153.488-1.715a4.8,4.8,0,0,0,2.883-2.6c.857-1.907.872-4.139,1.937-5.913,1.242-2.1,3.607-3.223,5.47-4.8,4.7-3.992,5.914-10.718,5.692-16.839-.148-4.953-.946-9.95-.636-14.872l.089-1.242c.089-.739.192-1.478.325-2.188.724-3.666,2.306-7.126,3.193-10.763s.976-7.732-1.094-10.866c-3.031-4.6-9.343-5.514-14.887-5.987-6.283-.532-11.9.163-15.922-5.056a56.768,56.768,0,0,0-6.327-7.643c-.828-.769-8.87-5.677-8.87-6a35.94,35.94,0,0,0-25.058-1.922c-4.169,1.212-8.1,3.193-12.33,4.184-9.122,2.158-19.618-.177-27.365,5.041-4.317,2.957-6.9,7.658-9.328,12.241q-2.957,5.662-6,11.31c-3.267,6.194-6.594,12.492-7.969,19.352a30.723,30.723,0,0,0-.532,4.524h0v2.41a7.948,7.948,0,0,0,.089,1.478c.089.458.074.606.118.917s.118,1.005.207,1.478.266,1.3.444,1.951c.074.281.177.547.266.813.148.5.325.991.517,1.478.1.251.207.517.325.769a13.815,13.815,0,0,0,.754,1.478c.118.207.207.4.325.591a19.628,19.628,0,0,0,1.36,1.981c3.164,3.947,7.821,6.461,11.265,10.156v1.656A50.605,50.605,0,0,0,433.671,344.7c0,.562.074,1.138.1,1.7a84.6,84.6,0,0,1-.163,13.172,6.209,6.209,0,0,0-4.908-2.188,7.074,7.074,0,0,0-1.892.162l-.133-.1h0v.133c-3.253.8-7.259,4.184-11.088,13.808,0,0-11.65,13.128-20.52,12.581s-31.327,13.66-31.327,13.66-21.91,14.222-26.611,28.71A202.334,202.334,0,0,1,327.7,450.4l-27.084,55.809h0l-5,44.278s2.765,19.692,2.218,22.693,11.369,30.07,11.369,30.07,39.369,69.173,55.454,72.721l1.153-.813a9.43,9.43,0,0,0,2.173.813l3.312-2.336a36.08,36.08,0,0,1-.251,7.806c-2.218,6.83.828,51.4,4.7,60.14s2.5,123.3,2.5,123.3L377.7,874.99a4.286,4.286,0,0,0,.133.887l-.133,2.395.4.207a28.473,28.473,0,0,1-.4,9.624c-1.39,4.435-1.952,16.972-1.952,16.972s-11.073,70.785-5.825,85.007,9.713,29.8,9.713,29.8,5.544,17.741.266,20.771-20.283,8.116-17.193,15.508c2.809,6.83,13.468,25.132,15.05,27.808l-.133,1.4-2.173,23.551a29.568,29.568,0,0,0,2.5,8.989c2.38,5.13,7.008,10.452,15.8,9.876,1.478-.1,3.193-.281,4.849-.5,16.1-2.158,35.925-9.343,35.925-9.343a14.654,14.654,0,0,1-2.809-2.321h0a8.116,8.116,0,0,1-2.469-5.914c.237-4.287-7.791-24.718-9.787-29.745-.31-.724-.473-1.138-.473-1.138s18.3-19.13,15.257-36.087c0,0-20.254-11.827-13.586-18.317s18.583-25.132,18.583-25.132.547-69.706,0-80.113a86.184,86.184,0,0,1,1.02-21.629c.222-1.079.488-2.129.769-3.164a192.953,192.953,0,0,0,27.853,2.114c3.4,0,6.86,0,10.349-.207q0,1.478.133,3.193c.769,17.267,2.2,47.545,3.371,58.8,1.656,16.129,10.807,59.594,10.807,59.594s-17.46,11.206,3.046,38.822c0,0,0,10.009-1.36,11.458h0a125.321,125.321,0,0,0-3.5,14.429c-.857,5.2-1.212,10.467.177,13.2,3.326,6.534,23.285,6,23.285,6h0l.488-.089a28.608,28.608,0,0,1,21.126,6.372c7.584,6.091,36.368,3.415,51.95,1.479,6.106-.769,10.186-1.479,10.186-1.479a5.912,5.912,0,0,0,.207-2.129h0c-.163-3.829-3.164-12.226-23.506-19.722,0,0-19.13-12.862-18.864-24.068h-2.617a20.84,20.84,0,0,1,2.646,0s-7.5-27.35-4.435-29.568-6.106-32.524-6.106-32.524-5.248-50.856-5.529-54.419a31.05,31.05,0,0,1,1.375-9.018l-1.375-27.882s-.266-9.27,0-12.285a61.37,61.37,0,0,0-.636-7.821c-.133-1.035-.266-2.114-.414-3.179,7.17-1.818,11.827-3.5,11.827-3.5l-.828-97.056c6.091-11.827,7.215-37.773,7.185-56.178,0-11.827-.532-20.579-.532-20.579l8.323-13.586s1.922-16.262-1.124-19.825c-1.345-1.611-.739-3.282.37-4.657a15.475,15.475,0,0,1,1.818-1.242s-.089-.133-.192-.325a14.68,14.68,0,0,1,1.848-1.316s-2.957-4.583-.31-6.52c2.484,1.685,4.7,2.957,6.387,3.992-.118,1.079-.236,1.7-.236,1.7l.709-1.478c1.626.917,2.617,1.478,2.617,1.478s13.039-25.975,12.758-29.8,8.87-19.958,8.87-19.958,1.109-8.471,6.106-12.019,3.873-29.257,3.873-29.257,1.39-13.394,4.716-18.864S610.84,543.611,610.84,543.611Zm-249.492-11.4.251,6.194-2.543-4.1Z" transform="translate(71.351 17.689)" fill="url(#linear-gradient)"/>
    <path id="Path_89" data-name="Path 89" d="M497.936,526.336l-3.193,13.6s-25.576-13.054-30.189-29.641,7.717-22.885,7.717-22.885l23.831,10.1Z" transform="translate(151.671 146.493)" fill="#fff"/>
    <path id="Path_90" data-name="Path 90" d="M497.936,526.336l-3.193,13.6s-25.576-13.054-30.189-29.641,7.717-22.885,7.717-22.885l23.831,10.1Z" transform="translate(151.671 146.493)" opacity="0.1"/>
    <path id="Path_91" data-name="Path 91" d="M408.434,844.278s-23.654,8.693-39.916,9.787c-8.634.576-13.172-4.716-15.508-9.817a29.716,29.716,0,0,1-2.439-8.944l2.114-23.432,1.124-12.478,34.55-8.974,4.893,14.961.458,1.138c1.966,5,9.846,25.325,9.609,29.568a8.072,8.072,0,0,0,2.425,5.84,14.057,14.057,0,0,0,2.691,2.351Z" transform="translate(97.638 291.447)" fill="#fff"/>
    <path id="Path_92" data-name="Path 92" d="M533.36,832.864a5.913,5.913,0,0,1-.207,2.114s-50.59,8.442-60.939,0a27.409,27.409,0,0,0-21.289-6.239s-19.574.532-22.841-5.914c-1.36-2.706-1.005-7.954-.163-13.128a125.09,125.09,0,0,1,3.43-14.355l.784-.621,4.657-3.74,54.523-1.611h.414c-.266,11.147,18.509,23.935,18.509,23.935C530.181,820.7,533.123,829.05,533.36,832.864Z" transform="translate(134.284 290.945)" fill="#fff"/>
    <path id="Path_93" data-name="Path 93" d="M533.357,826.286a6.029,6.029,0,0,1-.222,2.114s-50.575,8.442-60.924,0a27.409,27.409,0,0,0-21.274-6.239s-19.589.532-22.841-5.914c-1.36-2.72-1.02-7.954-.177-13.128,7.54.754,19.441,2.631,24.112,7.111,7.067,6.815,19.042,13.616,26.389,14.148C484.171,824.749,518.573,825.843,533.357,826.286Z" transform="translate(134.287 297.523)" opacity="0.1"/>
    <path id="Path_94" data-name="Path 94" d="M407.64,827.587s-23.654,8.693-39.916,9.787c-8.634.577-13.172-4.716-15.493-9.831,6.017,2.025,14.37,4.154,18.761,2.2,5.2-2.307,23.654-3.8,34-4.435A14.569,14.569,0,0,0,407.64,827.587Z" transform="translate(98.432 308.138)" opacity="0.1"/>
    <path id="Path_95" data-name="Path 95" d="M426.176,381.7c-19.515-7.584-44.617-32.643-38.349-44.351a26.2,26.2,0,0,0,2.439-9.4,85.843,85.843,0,0,0,.177-13.305A182.2,182.2,0,0,0,387.827,293s60.924,1.375,57.376,10.349c-1.035,2.631-1.2,7.2-.917,12.315s1.02,10.9,1.789,15.789c1.064,6.712,2.129,11.827,2.129,11.827s-3.726,5.219-5.913,5.5S454.177,392.51,426.176,381.7Z" transform="translate(114.992 53.491)" fill="#cf6f80"/>
    <path id="Path_96" data-name="Path 96" d="M393,806.52l-.458.5c-18.214-22.028-40.242,5.425-40.242,5.425l-.325-.577,1.124-12.478,34.55-8.974,4.893,14.961Z" transform="translate(98.307 291.447)" opacity="0.1"/>
    <path id="Path_97" data-name="Path 97" d="M490.383,790.941s-13.305-.281-20.4,5.987-41.395,1.36-39.916,0a4.863,4.863,0,0,0,.769-2.247l4.657-3.74,54.523-1.611C490.22,790.321,490.383,790.941,490.383,790.941Z" transform="translate(135.644 290.926)" opacity="0.1"/>
    <path id="Path_98" data-name="Path 98" d="M420.528,682.858a41.13,41.13,0,0,0-2.247,7.584,86.793,86.793,0,0,0-1.02,21.525c.547,10.349,0,79.7,0,79.7s-11.694,18.495-18.214,25.014,13.305,18.229,13.305,18.229c2.957,16.854-14.961,35.9-14.961,35.9-18.214-22.028-40.242,5.44-40.242,5.44s-11.975-20.7-14.961-28.089,11.694-12.507,16.854-15.508-.251-20.7-.251-20.7-4.361-15.508-9.536-29.656,5.706-84.578,5.706-84.578.562-12.507,1.907-16.868a28.207,28.207,0,0,0,.4-9.58c-.089-1.079-.192-1.981-.266-2.587s-.133-.887-.133-.887l.207-.355,7.392-13.779S424.076,674.18,420.528,682.858Z" transform="translate(93.438 226.024)" fill="#54a591"/>
    <path id="Path_99" data-name="Path 99" d="M495.554,849.538s-13.305-.281-20.4,5.914-41.395,1.36-39.916,0,1.36-11.428,1.36-11.428c-20.121-27.468-2.957-38.615-2.957-38.615s-8.989-43.243-10.615-59.283c-1.138-11.206-2.543-41.321-3.3-58.514-.325-7.392-.518-12.478-.518-12.478l16.44-3.312,2.114-.429,39.65-7.954s1.094,7.392,1.833,13.439a62.833,62.833,0,0,1,.621,7.791c-.266,2.957,0,12.211,0,12.211l1.345,27.749a31.515,31.515,0,0,0-1.345,8.974c.266,3.533,5.426,54.123,5.426,54.123s8.974,30.189,5.914,32.362S495.554,849.538,495.554,849.538Z" transform="translate(130.474 230.703)" fill="#54a591"/>
    <path id="Path_100" data-name="Path 100" d="M444.886,303.349c-1.035,2.632-1.2,7.2-.917,12.315a50.635,50.635,0,0,1-53.843-1.005A182.192,182.192,0,0,0,387.51,293S448.434,294.345,444.886,303.349Z" transform="translate(115.309 53.491)" opacity="0.1"/>
    <path id="Path_101" data-name="Path 101" d="M474.981,294.27a50.07,50.07,0,0,1-2.484,15.686,50.59,50.59,0,0,1-98.667-14.473V294.27a50.587,50.587,0,1,1,101.173,0Z" transform="translate(108.765 29.897)" fill="#cf6f80"/>
    <path id="Path_102" data-name="Path 102" d="M426.176,370.394c-19.515-7.584-44.617-32.643-38.349-44.351a26.2,26.2,0,0,0,2.439-9.4l26.714,21.954,16.528,13.557,12.566-31.992c1.064,6.712,2.129,11.827,2.129,11.827s-3.726,5.219-5.913,5.5S454.177,381.2,426.176,370.394Z" transform="translate(114.992 64.8)" opacity="0.1"/>
    <path id="Path_103" data-name="Path 103" d="M453.952,409.551,431.643,784.32l-29.095,1.907L327.21,568.92l12.359-257.992,2.6-54.508,33.5,27.513,16.543,13.557,12.936-32.924L429.2,285.529Z" transform="translate(156.301 122.669)" fill="#54a591"/>
    <path id="Path_104" data-name="Path 104" d="M415.644,682.82A41.135,41.135,0,0,0,413.4,690.4a214.368,214.368,0,0,1-61-19.056l-.4-.207.133-2.38.074-1.242L359.6,653.74S419.192,674.142,415.644,682.82Z" transform="translate(98.322 226.062)" opacity="0.1"/>
    <path id="Path_105" data-name="Path 105" d="M436.018,683.086a149.733,149.733,0,0,1-16.351,1.863c-.325-7.392-.517-12.478-.517-12.478l16.44-3.312Z" transform="translate(130.445 233.439)" opacity="0.1"/>
    <path id="Path_106" data-name="Path 106" d="M473.183,676.929c-10.511,2.735-26.744,5.81-41.276,3.888l-.207-9.373,39.65-7.954S472.444,670.808,473.183,676.929Z" transform="translate(136.449 230.726)" opacity="0.1"/>
    <path id="Path_107" data-name="Path 107" d="M493.687,849.241c-60.614,10.349-116.127-19.322-116.127-19.322l.532-10.053s1.375-113.969-2.439-122.706-6.786-53.044-4.627-59.845-7.88-108.779-7.88-108.779l-1.626-41.395L302,463.029l26.611-55.469a200.166,200.166,0,0,0,9.255-23.95c4.627-14.4,26.108-28.547,26.108-28.547s22.028-14.133,30.736-13.6,20.121-12.507,20.121-12.507c8.427-21.481,16.055-11.753,16.055-11.753,0,1.02,0,0-.414,3.178-2.957,23.58,47.811,98.091,48.535,99.406h0l4.834,117.768,4.893,149.036Z" transform="translate(74.403 64.017)" opacity="0.1"/>
    <path id="Path_108" data-name="Path 108" d="M492.6,849.269c-60.614,10.349-116.142-19.323-116.142-19.323l.547-10.053s1.375-113.968-2.454-122.705-6.786-53.044-4.613-59.845-7.88-108.779-7.88-108.779l-1.641-41.395-59.549-24.2L327.481,407.5a203.3,203.3,0,0,0,9.255-23.95C341.348,369.15,362.844,355,362.844,355s22.028-14.133,30.721-13.6,20.121-12.507,20.121-12.507c8.442-21.481,17.741-11.753,17.741-11.753,0,1.02-.887,1.478-.414,3.179,6.5,22.871,46.185,98.091,46.909,99.406h0l4.893,117.768,4.893,149.036Z" transform="translate(73.862 63.989)" fill="#fff"/>
    <path id="Path_109" data-name="Path 109" d="M437.579,421.974c-6.52-2.72-41.055-42.149-41.055-42.149v-8.974c-1.257-2.957-8.723-1.153-14.784.917l2.6-54.508,2.957,2.454C393.774,342.57,436.825,420.658,437.579,421.974Z" transform="translate(112.549 65.097)" opacity="0.1"/>
    <path id="Path_110" data-name="Path 110" d="M438.693,419.764c-6.534-2.72-41.069-42.149-41.069-42.149v-8.974c-1.257-2.957-8.722-1.153-14.784.917l2.617-54.508,2.957,2.454C394.9,340.36,437.969,418.463,438.693,419.764Z" transform="translate(113.075 64.039)" fill="#fff"/>
    <path id="Path_111" data-name="Path 111" d="M354.186,520.3c.813,0,42.149-4.346,42.149-4.346s25.029,49.215,23.388,61.19-4.613,22.575-14.68,20.7-54.183,1.478-54.183,1.478Z" transform="translate(97.776 160.146)" opacity="0.1"/>
    <path id="Path_112" data-name="Path 112" d="M353.076,518.086c.813,0,42.149-4.346,42.149-4.346s25.014,49.23,23.388,61.19-4.627,22.575-14.68,20.7-54.183,1.478-54.183,1.478Z" transform="translate(97.245 159.089)" fill="#fff"/>
    <path id="Path_113" data-name="Path 113" d="M380.385,501.05s37.935,20.387,38.748,26.611-19.308-2.72-23.654-3.8a54.115,54.115,0,0,0-8.708-1.36l-28.991.783Z" transform="translate(101.087 153.018)" fill="#cf6f80"/>
    <circle id="Ellipse_14" data-name="Ellipse 14" cx="3.992" cy="3.992" r="3.992" transform="translate(535.55 481.63)" opacity="0.1"/>
    <circle id="Ellipse_15" data-name="Ellipse 15" cx="3.992" cy="3.992" r="3.992" transform="translate(535.55 480.004)" fill="#3f3d56"/>
    <circle id="Ellipse_16" data-name="Ellipse 16" cx="3.992" cy="3.992" r="3.992" transform="translate(542.898 654.423)" opacity="0.1"/>
    <circle id="Ellipse_17" data-name="Ellipse 17" cx="3.992" cy="3.992" r="3.992" transform="translate(542.898 652.782)" fill="#3f3d56"/>
    <circle id="Ellipse_18" data-name="Ellipse 18" cx="3.992" cy="3.992" r="3.992" transform="translate(539.527 568.026)" opacity="0.1"/>
    <circle id="Ellipse_19" data-name="Ellipse 19" cx="3.992" cy="3.992" r="3.992" transform="translate(539.527 566.4)" fill="#3f3d56"/>
    <path id="Path_114" data-name="Path 114" d="M501.381,608.83s2.72,4.08,0,5.987.266,6.52.266,6.52-6.786,3.977-3.8,7.555,1.094,19.736,1.094,19.736l-8.161,13.512s.488,8.708.517,20.475c0,18.362-1.079,44.174-7.052,55.942l.828,96.553s-28.577,10.437-52.5,7.259l-3.548-154.934s5.174-87.86,7.082-104.714a175.459,175.459,0,0,0,1.36-26.389s-.813-26.374-3.548-38.615c0,0-2.957-53.03-3.253-67.71-.133-7.022.237-27.513.651-47,.458-21.3.976-41.395.976-41.395l-5.4-42.7s5.4-.547,7.022,1.626a15.566,15.566,0,0,0,2.365,1.818h0c9.314,6.3,42.223,25.665,42.223,25.665s18.214,7.244,22.575,17.622,7.392,17.741,9.506,20.7,3.267,16.854,3.267,16.854,6.268,25.576,11.162,29.908S533.491,465,533.491,465l-43.243,34s-3.8,56.563-4.612,58.751S501.381,608.83,501.381,608.83Z" transform="translate(134.152 65.861)" fill="#fff"/>
    <path id="Path_115" data-name="Path 115" d="M503.055,608.983s2.705,4.08,0,5.987.251,6.52.251,6.52-6.741,4.021-3.785,7.6,1.094,19.736,1.094,19.736l-8.161,13.512s.488,8.708.532,20.476c0,18.361-1.079,44.174-7.052,55.942l.813,96.553s-28.622,10.438-52.512,7.259L430.7,687.633s5.174-87.86,7.081-104.714a173.853,173.853,0,0,0,1.345-26.389s-.813-26.374-3.533-38.615c0,0-2.957-53.029-3.267-67.71-.133-7.022.251-27.513.651-47,.458-21.3.976-41.395.976-41.395L426.83,318.54s7.126,0,8.767,2.2a14.026,14.026,0,0,0,2.365,1.818h0c9.314,6.3,42.237,25.665,42.237,25.665s18.2,7.244,22.56,17.622,7.392,17.741,9.521,20.7,3.253,16.854,3.253,16.854,6.268,25.576,11.162,29.908,8.427,31.83,8.427,31.83l-43.243,34s-3.8,56.563-4.627,58.751S503.055,608.983,503.055,608.983Z" transform="translate(134.119 65.709)" fill="#fff"/>
    <path id="Path_116" data-name="Path 116" d="M450.737,373.316l3.9,11.384L434.09,405.4c.458-21.289.976-41.395.976-41.395L427.94,320.73s7.126,0,8.767,2.2a13.484,13.484,0,0,0,2.365,1.8h0l17.475,50.413Z" transform="translate(134.65 66.757)" opacity="0.1"/>
    <path id="Path_117" data-name="Path 117" d="M449.627,371.106l3.918,11.383-20.549,20.7c.458-21.3.976-41.395.976-41.395L426.83,318.52s7.141,0,8.767,2.2a14.784,14.784,0,0,0,2.365,1.818h0l17.489,50.4Z" transform="translate(134.119 65.699)" fill="#fff"/>
    <path id="Path_118" data-name="Path 118" d="M474.981,294.27a50.074,50.074,0,0,1-2.484,15.686,2.115,2.115,0,0,1-1.6-.4c-.384-13.305-6.934-25.8-14.991-36.427a38.272,38.272,0,0,0-8.131-8.427,15.908,15.908,0,0,0-11.029-3.119c-4.435.606-8.353,3.622-12.832,4.006-5.913.488-11.206-3.607-17.075-3.814a16.78,16.78,0,0,0-12.552,5.825,34.434,34.434,0,0,0-6.727,12.478,73,73,0,0,0-3.755,21.525c-.074,4.139-.473,9.329-4.317,10.837a22.087,22.087,0,0,0-5.573-16.868l-.089-.089V294.27a50.587,50.587,0,1,1,101.173,0Z" transform="translate(108.765 29.897)" opacity="0.1"/>
    <path id="Path_119" data-name="Path 119" d="M450.354,224.642a34.831,34.831,0,0,0-24.571-1.922c-4.1,1.212-7.954,3.179-12.108,4.169-8.87,2.144-19.219-.177-26.833,5.012-4.228,2.957-6.771,7.628-9.136,12.167l-5.914,11.265c-3.223,6.165-6.475,12.433-7.821,19.219s-.532,14.385,3.77,19.84c3.134,3.977,7.761,6.475,11.162,10.216a22.176,22.176,0,0,1,5.559,16.854c3.859-1.478,4.228-6.682,4.317-10.822a73,73,0,0,1,3.755-21.525,34.313,34.313,0,0,1,6.727-12.478,16.809,16.809,0,0,1,12.551-5.825c5.914.207,11.221,4.287,17.075,3.8,4.435-.37,8.368-3.4,12.832-3.992a15.848,15.848,0,0,1,11.029,3.119,37.877,37.877,0,0,1,8.116,8.427c8.072,10.63,14.621,23.092,15.006,36.427,1.671,1.227,4.08-.37,4.908-2.262s.857-4.11,1.907-5.913c1.212-2.085,3.533-3.193,5.352-4.76,4.613-3.977,5.766-10.674,5.588-16.75s-1.36-12.241-.207-18.214c.695-3.666,2.262-7.1,3.119-10.718s.961-7.688-1.065-10.807c-2.957-4.583-9.181-5.485-14.606-5.914-6.165-.532-11.679.148-15.612-5.041a56.623,56.623,0,0,0-6.209-7.6C458.263,229.846,450.354,224.967,450.354,224.642Z" transform="translate(103.765 19.205)" fill="#512e4e"/>
    <path id="Path_120" data-name="Path 120" d="M320.1,443.692,304.653,415.13,299.76,459.2s2.72,19.574,2.173,22.575,11.147,29.908,11.147,29.908,38.63,68.8,54.4,72.352l53.3-38.083L406.647,528s-4.893-1.907-6.12,0c0,0-26.241-45.15-28.961-48.417s-2.188-9.787-2.188-9.787-4.08-4.346-2.72-8.427-7.88-18.228-7.88-18.228l8.427-7.88Z" transform="translate(73.331 111.916)" opacity="0.1"/>
    <path id="Path_121" data-name="Path 121" d="M306.524,412.93l-4.08,3.252-4.893,44.07s2.72,19.574,2.173,22.575,11.162,29.908,11.162,29.908,38.615,68.8,54.39,72.352L418.585,547l-14.148-17.948s-4.893-1.907-6.12,0c0,0-26.241-45.15-28.962-48.417s-2.173-9.787-2.173-9.787-4.08-4.346-2.72-8.427-7.895-18.228-7.895-18.228l8.427-7.88Z" transform="translate(72.274 110.863)" fill="#fff"/>
    <path id="Path_122" data-name="Path 122" d="M484.87,538.23c2.957,3.593,1.094,19.722,1.094,19.722L477.8,571.464s.488,8.723.517,20.476L464.6,596.227a8.146,8.146,0,0,1-10.57-8.028l2.365-76.3L488.4,524.141c-2.72,1.892.266,6.534.266,6.534S481.884,534.638,484.87,538.23Z" transform="translate(147.13 158.209)" opacity="0.1"/>
    <path id="Path_123" data-name="Path 123" d="M485.985,537.115c2.957,3.592,1.094,19.736,1.094,19.736l-8.161,13.513s.488,8.708.532,20.476L465.48,595.2a7.983,7.983,0,0,1-10.349-7.865l2.38-76.536,32.022,12.241c-2.735,1.892.251,6.52.251,6.52S483.028,533.538,485.985,537.115Z" transform="translate(147.656 157.682)" fill="#fff"/>
    <path id="Path_124" data-name="Path 124" d="M491.456,507.852s-2.173,13.882-7.614,14.7-7.88,22.457-13.305,21.688-1.833-20.121-1.641-23.876-5.914-19.308-1.345-22.841,19.027,0,19.027,0Z" transform="translate(152.785 150.577)" fill="#cf6f80"/>
    <path id="Path_125" data-name="Path 125" d="M504.838,438.387l10.26-20.7s4.08,15.774,4.08,24.2,5.707,9.255,5.707,9.255,6.254,7.392,2.957,12.773-4.627,18.775-4.627,18.775,1.079,25.561-3.814,29.095-5.914,11.975-5.914,11.975-8.988,16.04-8.708,19.855-12.507,29.642-12.507,29.642,6.254-32.1-30.189-45.963c0,0-.281-10.9,2.439-13.882s6.963-4.346,4.3-19.441-.769-33.131-.769-36.753,8.161-26.212,8.161-26.212Z" transform="translate(150.979 113.14)" opacity="0.1"/>
    <path id="Path_126" data-name="Path 126" d="M508.272,415.69l8.959,2.957s4.1,15.774,4.1,24.2,5.706,9.255,5.706,9.255,6.254,7.392,2.957,12.773-4.613,18.775-4.613,18.775,1.079,25.561-3.814,29.095-5.987,11.975-5.987,11.975-8.974,16.04-8.693,19.855-12.522,29.642-12.522,29.642,6.268-32.1-30.189-45.963c0,0-.266-10.9,2.454-13.882s6.963-4.346,4.3-19.441-.769-33.131-.769-36.753,8.161-26.212,8.161-26.212Z" transform="translate(151.979 112.184)" fill="#fff"/>
    <path id="Path_127" data-name="Path 127" d="M360.15,780.122s14.281-8.974,23.654-2.454S360.15,780.122,360.15,780.122Z" transform="translate(102.22 284.211)" opacity="0.1"/>
    <path id="Path_128" data-name="Path 128" d="M435.21,759.816s12.64-1.626,23.255,9.8S435.21,759.816,435.21,759.816Z" transform="translate(138.128 276.769)" opacity="0.1"/>
    <g id="Group_15" data-name="Group 15" transform="translate(467.152 273.016)" opacity="0.1">
      <path id="Path_129" data-name="Path 129" d="M481.226,287.536c-1.818,1.567-4.154,2.691-5.367,4.775-1.035,1.789-1.064,3.992-1.892,5.914s-3.238,3.489-4.908,2.277c-.384-13.305-6.948-25.8-15.005-36.442a37.873,37.873,0,0,0-8.116-8.427,15.892,15.892,0,0,0-11.044-3.119c-4.435.606-8.338,3.622-12.818,3.992-5.914.5-11.221-3.592-17.09-3.8a16.736,16.736,0,0,0-12.537,5.84,34.24,34.24,0,0,0-6.727,12.463,73.088,73.088,0,0,0-3.755,21.525c-.089,4.125-.473,9.269-4.287,10.807a20.255,20.255,0,0,1,0,3.282c3.844-1.478,4.228-6.682,4.317-10.822a73,73,0,0,1,3.755-21.525,34.311,34.311,0,0,1,6.727-12.478,16.779,16.779,0,0,1,12.537-5.825c5.914.207,11.236,4.287,17.09,3.8,4.435-.37,8.368-3.4,12.818-3.992a15.893,15.893,0,0,1,11.044,3.119,37.874,37.874,0,0,1,8.116,8.427c8.057,10.63,14.621,23.092,15.006,36.427,1.671,1.227,4.08-.37,4.908-2.262s.857-4.11,1.892-5.914c1.212-2.085,3.548-3.193,5.367-4.76,4.613-3.977,5.766-10.674,5.588-16.75v-.562C486.563,278.769,485.158,284.135,481.226,287.536Z" transform="translate(-356.546 -238.926)"/>
      <path id="Path_130" data-name="Path 130" d="M378.93,282.689c-3.4-3.74-8.042-6.239-11.162-10.2a21.644,21.644,0,0,1-4.3-12.108,22.768,22.768,0,0,0,4.3,15.36c3.119,3.977,7.761,6.475,11.162,10.216a22.176,22.176,0,0,1,5.573,13.187,22.176,22.176,0,0,0-5.573-16.454Z" transform="translate(-363.385 -235.129)"/>
      <path id="Path_131" data-name="Path 131" d="M454.645,246.227c-.872,3.622-2.425,7.067-3.134,10.718a34.145,34.145,0,0,0-.458,7.392,28.725,28.725,0,0,1,.458-4.2c.71-3.666,2.262-7.1,3.134-10.718a18.184,18.184,0,0,0,.488-6.121A20.545,20.545,0,0,1,454.645,246.227Z" transform="translate(-321.464 -243.3)"/>
    </g>
    <ellipse id="Ellipse_20" data-name="Ellipse 20" cx="144.053" cy="23.137" rx="144.053" ry="23.137" transform="translate(51.942 1078.171)" fill="#54a591" opacity="0.1"/>
    <rect id="Rectangle_86" data-name="Rectangle 86" width="9.269" height="208.703" transform="translate(191.369 658.089)" fill="#535461"/>
    <path id="Path_132" data-name="Path 132" d="M263.2,649.093l-.577,9.4L261.8,671.8l-.34,5.529-.813,13.305-.355,5.529-.828,13.305-9.343,150.9A25.576,25.576,0,0,1,224.6,884.347h-48.58a25.561,25.561,0,0,1-25.5-23.979l-9.3-151-.828-13.305-.34-5.529-.828-13.305-.34-5.529-.828-13.305-.591-9.4a13.305,13.305,0,0,1,13.305-14.059h99.362A13.217,13.217,0,0,1,263.2,649.093Z" transform="translate(-4.317 217.064)" fill="#3f3d56"/>
    <path id="Path_133" data-name="Path 133" d="M215.207,592.24,214.38,605.5H91.408L90.58,592.24Z" transform="translate(43.102 283.319)" fill="#9d9cb5"/>
    <path id="Path_134" data-name="Path 134" d="M213.662,604.95l-.813,13.276H92.2L91.37,604.95Z" transform="translate(43.48 289.4)" fill="#9d9cb5"/>
    <path id="Path_135" data-name="Path 135" d="M212.116,617.68l-.813,13.261H92.988L92.16,617.68Z" transform="translate(43.858 295.489)" fill="#9d9cb5"/>
    <path id="Path_136" data-name="Path 136" d="M166.76,570.036c53.976,39.059,76.506,100.145,76.506,100.145s-65.049-2.232-119.039-41.291S47.75,528.76,47.75,528.76,112.769,530.978,166.76,570.036Z" transform="translate(-47.226 166.274)" fill="#54a591"/>
    <path id="Path_137" data-name="Path 137" d="M47.72,528.76s67.532,37.477,89.191,68.508S243.28,670.182,243.28,670.182" transform="translate(-47.24 166.274)" fill="none" stroke="#535461" stroke-miterlimit="10" stroke-width="2"/>
    <path id="Path_138" data-name="Path 138" d="M172.783,510.731c29.375,21.244,41.661,54.493,41.661,54.493s-35.407-1.212-64.8-22.457S108,488.26,108,488.26,143.392,489.472,172.783,510.731Z" transform="translate(-18.403 146.9)" fill="#54a591"/>
    <path id="Path_139" data-name="Path 139" d="M108,488.26s36.753,20.4,48.535,37.285,57.908,39.68,57.908,39.68" transform="translate(-18.403 146.9)" fill="none" stroke="#535461" stroke-miterlimit="10" stroke-width="2"/>
    <path id="Path_140" data-name="Path 140" d="M222.082,554.966c-33.751,37.093-40.892,85.569-40.892,85.569s47.589-11.679,81.311-48.787,40.892-85.568,40.892-85.568S255.833,517.874,222.082,554.966Z" transform="translate(16.609 155.472)" fill="#54a591"/>
    <path id="Path_141" data-name="Path 141" d="M303.423,506.19s-43.967,38.024-55.144,64.221-67.089,70.12-67.089,70.12" transform="translate(16.609 155.477)" fill="none" stroke="#535461" stroke-miterlimit="10" stroke-width="2"/>
    <path id="Path_142" data-name="Path 142" d="M1154.278,657.914s-24.408-121.434-15.065-136.543c0,0,.34-14.045-.222-31.948v-2.055a45.485,45.485,0,0,0,5.13,2.957,41.513,41.513,0,0,0,27.941,3.607l-7.392-8.234c-1.774-1.966-3.622-4.1-4.006-6.7s.68-4.923,1.6-7.244c7.022-17.741,7.392-40.049-6.135-53.591-11.428-11.384-14.208-26.079-26.611-36.472-9.062-7.614-14.044-18.775-18.746-29.568-3.977-9.122-7.983-18.317-10.26-27.986-1.774-7.555-2.484-15.375-4.923-22.752s-7.008-14.547-14.148-17.844c-2.543-1.168-5.366-1.833-7.688-3.385-3.045-2.055-4.878-5.4-7.081-8.323-11.191-14.784-48.668-6.076-66.409-.074a37.357,37.357,0,0,0-13.128,7.274l.162-.266c.133-.222.3-.443.444-.665a23.328,23.328,0,0,0-4.967,5.544c-2.587,4.1-3.667,8.87-5.825,13.305-2.6,5.248-17.075,19.9-10.851,25.8a5.244,5.244,0,0,0,1.478.946,12.788,12.788,0,0,0,7.392.739l-.266.636a43.212,43.212,0,0,0-3.208,16.4c0,24.29,20.032,43.982,44.765,43.982a45.2,45.2,0,0,0,13.7-2.114c.1.562.192,1.124.3,1.685a5.185,5.185,0,0,0,.1.665h0l-.784,1.094a1.464,1.464,0,0,0-.133-.192l-23.211,32.436c-3.548,2.5-23.979,17.282-25.132,28.37-1.212,12.138-2.425,26.345-2.425,26.345l-.162,3.045a9.137,9.137,0,0,1-7.392,2c-7.244-1.183-7.244,26.611-7.244,26.611s-4.82,4.435-8.131.591-12.064,9.181-12.064,9.181l-54.848,2.365h0l-1.257.074-2.957-9.151a3.859,3.859,0,0,0-4.834-2.469,4.448,4.448,0,0,0-.665.281l-.207.118-.384.266-.192.177a2.973,2.973,0,0,0-.3.31l-.177.207-.089.089h0a3.726,3.726,0,0,0-.532,3.312l2.543,7.85c-10.585,2.129-21.407,8.131-12.581,24.659l-44.736-8.264,14.473,12.152,74.717,15.42c-.99,1.774-.34,4.346,2.75,7.968,13.305,15.627,37.551,19.87,47.308,20.964a83.988,83.988,0,0,0,9.595,16.262l-.843,15.567s-24.7,118.655-29.228,124.672a70.328,70.328,0,0,0,6.254-8.235c-7.17,24.379-17.194,57.746-19.825,62.742-4.228,7.983-8.146,40.286-3.326,42.356,1.478.636,5.707.325,11.738-.133V847.4l-.266,101.4s1.212,62.2-2.114,68.124-4.213,18.362-4.213,18.362-13.305,24.526-23.846,34.387a1.59,1.59,0,0,1-.237.207l-.325-2.306s-12.67,16-40.7,15.094c0,0-16.868,10.969,8.146,11.561s56.962-.887,56.962-.887,22.309-34,41-29.568v25.768h5.721V1063.36a23.461,23.461,0,0,0,10.186-15.419,18.746,18.746,0,0,0-6.682-17.341,11.087,11.087,0,0,1-3.651-8.1l-.207.177a15.684,15.684,0,0,0-.192-1.6c-1.641-13.305-3.7-40.759,3.563-61.072,9.95-27.853,12.965-66.645,5.721-89.738a206.373,206.373,0,0,1-5.751-22.486c-.178-.961-.34-1.878-.488-2.735A116.568,116.568,0,0,1,993.385,848c16.78,4.628,53.488,5.485,84.83,5.234.074.857.163,1.759.266,2.661a96.859,96.859,0,0,0,3.489,18.509c3.932,11.827,5.736,63.97,5.736,63.97s5.071,42.873,2.306,60.318c-1.478,9.7-2.957,19.441-3.8,29.228v.192s-8.308,23.654-14.385,36.5c-.148.325-.311.651-.458.961a19.219,19.219,0,0,0-4.746,1.05s-8.146,16.262-16.262,18.953-5.426,11.546,12.95,8.294,46.125-5.914,46.125-5.914l1.2-16.587,5.647-7.067-1.478,16.543,6.017-1.182-.8-20.121,9.24-11.561s11.162-9.935-5.426-29.479v.429c-.177-.281-.34-.577-.532-.857v-.089c-2.75-4.258-4.938-12.2-.931-26.286,7.244-25.458,11.458-48.565,11.458-48.565s16.173-61.9-3.267-91.187h.857a49.266,49.266,0,0,1-4.184-13.01q-.148-.8-.266-1.641c14.385-.828,28.5-3.43,40.02-9.048C1166.948,828.194,1160.014,681.3,1154.278,657.914ZM971.653,555.462v.3l-2.957.148Zm-10.142,1.4a3.268,3.268,0,0,0-1.331.636,13.129,13.129,0,0,0-2.321,6.076l-4.612-1.035s-3.238-.695-7.895-1.478l-2.2-2.218C949.212,558.345,955.509,557.606,961.512,556.867Z" transform="translate(323.385 39.471)" fill="url(#linear-gradient-2)"/>
    <path id="Path_143" data-name="Path 143" d="M973.079,744.487l-1.759,20.949,5.9-1.183-.887-22.723Z" transform="translate(464.431 354.737)" fill="#1d2366"/>
    <path id="Path_144" data-name="Path 144" d="M954.747,775.461c-7.111,20.254-5.1,47.589-3.5,60.865.591,4.908,1.138,7.895,1.138,7.895s-10.63,24.216-11.516,25.132-31.283,19.47-31.283,19.47l-21.244,12.4s-21.555-9.447-11.221-12.7a15.683,15.683,0,0,0,5.574-3.8c10.349-9.831,23.344-34.269,23.344-34.269s.887-12.4,4.139-18.3,2.07-67.887,2.07-67.887l.251-101.047V650.05l40.434.3a91.515,91.515,0,0,0,1.744,13.305,203.423,203.423,0,0,0,5.633,22.412C967.432,709.111,964.475,747.712,954.747,775.461Z" transform="translate(348.186 224.297)" fill="#ffb0b1"/>
    <path id="Path_145" data-name="Path 145" d="M952.382,783.935s-10.63,24.216-11.516,25.132-31.283,19.47-31.283,19.47l-21.244,12.4s-21.555-9.447-11.221-12.7a15.686,15.686,0,0,0,5.574-3.8l.917,6.46,7.082-.3L951.3,776.07C951.835,780.949,952.382,783.935,952.382,783.935Z" transform="translate(348.186 284.582)" opacity="0.1"/>
    <path id="Path_146" data-name="Path 146" d="M963.794,777l-60.953,54.907-7.082.3-1.478-10.349s-12.389,15.937-39.916,15.05c0,0-16.528,10.925,7.969,11.517s55.779-.887,55.779-.887,21.851-34,40.138-29.568v25.68h5.618V817.729a23.342,23.342,0,0,0,9.964-15.375,18.834,18.834,0,0,0-6.52-17.267A11.132,11.132,0,0,1,963.794,777Z" transform="translate(336.035 285.027)" fill="#1d2366"/>
    <path id="Path_147" data-name="Path 147" d="M1041.315,807.4c-3.932,14.045-1.789,21.954.9,26.2v.089a48.42,48.42,0,0,1,7.066,17.253l.237,1.331L1021.785,892.7l-15.05,5.914s-24.2-8.264-19.781-10.63c1.109-.577,2.838-3.652,4.82-7.895,5.913-12.788,14.074-36.383,14.074-36.383v-.192c.857-9.743,2.218-19.455,3.726-29.124,2.705-17.4-2.262-60.111-2.262-60.111s-1.774-51.936-5.618-63.748a97.475,97.475,0,0,1-3.445-18.391c-.8-7.392-.976-13.483-.976-13.483s15.937-22.176,45.15,1.774a32.135,32.135,0,0,1,6.106,6.623c20.18,28.71,3.933,91.955,3.933,91.955S1048.4,782.012,1041.315,807.4Z" transform="translate(401.814 223.941)" fill="#ffb0b1"/>
    <path id="Path_148" data-name="Path 148" d="M1049.55,792.747l-27.735,40.434-15.05,5.914s-24.2-8.264-19.781-10.63c1.109-.577,2.839-3.652,4.82-7.895,10.245-.089,15.553,9.669,15.553,9.669l12.98-2.07s17.119-33.648,20.963-35.7.592-15.36.592-15.36V773.72c.1.118.192.251.31.37v.089a48.415,48.415,0,0,1,7.067,17.253Z" transform="translate(401.828 283.458)" opacity="0.1"/>
    <path id="Path_149" data-name="Path 149" d="M1014.7,830.833s-7.392-13.571-21.555-8.56c0,0-7.968,16.262-15.937,18.894s-5.307,11.5,12.7,8.264,45.15-5.914,45.15-5.914l1.183-16.543,18.3-23.314s10.91-9.891-5.322-29.361v3.385s3.252,13.306-.591,15.36-20.9,35.718-20.9,35.718Z" transform="translate(395.372 283.736)" fill="#1d2366"/>
    <path id="Path_150" data-name="Path 150" d="M940.618,650.326a91.481,91.481,0,0,0,1.745,13.306c-16.647-2.439-32.1-1.227-42.223-.429V650.03Z" transform="translate(360.541 224.287)" opacity="0.1"/>
    <path id="Path_151" data-name="Path 151" d="M1046.637,670.739s-23.654,1.153-51.862,1.39c-.8-7.392-.976-13.483-.976-13.483s15.937-22.176,45.15,1.774a32.147,32.147,0,0,1,6.106,6.623,36.06,36.06,0,0,0,1.582,3.7Z" transform="translate(405.346 223.936)" opacity="0.1"/>
    <path id="Path_152" data-name="Path 152" d="M1095.858,751.873s-103.605,5.012-135.183-3.844-62.876-1.183-67.592-3.238-.887-34.239,3.252-42.208,26.847-88.555,26.847-88.555l21.851-113.924,23.018-6.342,1.626-.458,40.108-11.058,29.39-8.116s58.44,228.159,53.428,244.983a43.079,43.079,0,0,0-.857,19.8A49.41,49.41,0,0,0,1095.858,751.873Z" transform="translate(356.126 140.14)" fill="#1d2366"/>
    <path id="Path_153" data-name="Path 153" d="M879.524,439s-20.7,22.176-5.026,34.535,25.975,1.183,25.975,1.183Z" transform="translate(345.469 123.335)" fill="#c7daf5"/>
    <path id="Path_154" data-name="Path 154" d="M879.524,439s-20.7,22.176-5.026,34.535,25.975,1.183,25.975,1.183Z" transform="translate(345.469 123.335)" opacity="0.1"/>
    <path id="Path_155" data-name="Path 155" d="M1003.438,353.46s-2.425,2.306-6.076,5.707c-5.2,4.864-12.906,11.975-19.736,17.933-9.462,8.235-17.268,14.281-14.473,9.122s2.262-14.148.872-22.56c-.1-.562-.192-1.123-.3-1.67a154.95,154.95,0,0,0-4.568-18.273s15.286-19.751,23.743-27.542c3.149-2.957,5.352-4.169,5.485-2.114.148,2.765,2.218,8.87,4.79,15.346.074.207.148.4.236.606,1.715,4.435,3.652,8.989,5.352,12.921C1001.368,348.966,1003.438,353.46,1003.438,353.46Z" transform="translate(388.775 63.077)" fill="#ffb0b1"/>
    <path id="Path_156" data-name="Path 156" d="M993.414,330.007a43.879,43.879,0,0,1-29.39,33.648,153.836,153.836,0,0,0-4.864-19.943s28.784-37.181,29.228-29.656C988.491,316.909,990.738,323.236,993.414,330.007Z" transform="translate(388.775 63.083)" opacity="0.1"/>
    <path id="Path_157" data-name="Path 157" d="M978.421,355.7l3.726-5.248s2.469,15.05,11.546,8.412,9.521,49.954,9.521,49.954l-9.743,145.665-70.4-4.213,2-70.386,7.969-35.481,19.707-51.581,11.724-17.046Z" transform="translate(371.511 80.974)" opacity="0.1"/>
    <path id="Path_158" data-name="Path 158" d="M1003.2,409.45l-8.87,131.709-.931,13.956-39.251-2.351-1.478-.089L923.1,550.9l2-70.4,7.969-35.481,19.707-51.581,11.724-17.046,13.956-20.15,3.726-5.233s2.469,15.05,11.546,8.412l.192-.133h0C1002.785,353.671,1003.2,409.45,1003.2,409.45Z" transform="translate(371.525 81.242)" fill="#1d2366"/>
    <path id="Path_159" data-name="Path 159" d="M960.031,406.26s-3.533,7.392-10.63,6.194-7.081,26.611-7.081,26.611-4.716,4.435-7.969.591-11.827,9.151-11.827,9.151L868.8,451.173s23.905,10.925,19.219,43.982c0,0,81.163-5.026,83.824-12.7S960.031,406.26,960.031,406.26Z" transform="translate(345.549 107.673)" fill="#fff"/>
    <path id="Path_160" data-name="Path 160" d="M960.031,406.26s-3.533,7.392-10.63,6.194-7.081,26.611-7.081,26.611-4.716,4.435-7.969.591-11.827,9.151-11.827,9.151L868.8,451.173s23.905,10.925,19.219,43.982c0,0,81.163-5.026,83.824-12.7S960.031,406.26,960.031,406.26Z" transform="translate(345.549 107.673)" opacity="0.03"/>
    <path id="Path_161" data-name="Path 161" d="M777.66,389.76l14.163,12.093,116.585,24.5L893.95,411.6Z" transform="translate(371.788 186.457)" fill="#fff"/>
    <path id="Path_162" data-name="Path 162" d="M987.971,361.623c-1.937,2.957-7.481,18.1-12.108,31.312-3.859,11.014-7.081,20.7-7.081,20.7s-7.525,48.993-11.369,57.849-1.759,43.391-1.759,43.391L941.328,600.16s-6.49,43.982-16.513,70.253c-9.891,25.857-20.9,37.98-21.244,38.364,4.435-6,28.607-124.184,28.607-124.184l7.983-149.05s1.168-14.163,2.351-26.271,25.132-28.636,25.132-28.636L990.735,347.8C993.057,350.9,991.5,356.316,987.971,361.623Z" transform="translate(362.182 79.706)" fill="#fff"/>
    <path id="Path_163" data-name="Path 163" d="M937.265,497.3s-34-1.478-50.472-21.259,38.068-7.895,38.068-7.895l14.178,3.253Z" transform="translate(352.674 135.583)" fill="#ffb0b1"/>
    <path id="Path_164" data-name="Path 164" d="M1067.644,775.431a43.079,43.079,0,0,0-.857,19.8c-37.093,2.632-76.772-7.392-76.772-7.392-7.392,6.8-26.862,16.824-26.862,16.824L952.537,673.082C945.751,655.342,943.09,562.4,943.09,562.4s.606-4.864,1.479-12.152a1.4,1.4,0,0,1,.074-.547c2.646-20.357,7.895-58.573,10.467-63.733,3.548-7.1-10.911-25.975-10.911-25.975l6.579-56.1.8-6.771c13.867-6.194,24.5-25.975,24.5-25.975l8.161-14.3h0c8.87-5.692,9.328,50.088,9.328,50.088l-8.87,131.709,29.39-8.116S1072.655,758.607,1067.644,775.431Z" transform="translate(381.088 83.837)" opacity="0.1"/>
    <path id="Path_165" data-name="Path 165" d="M1105.138,795.924C1064.7,816,991.214,797.4,991.214,797.4c-7.392,6.8-26.862,16.824-26.862,16.824l-10.63-131.576c-6.771-17.741-9.432-110.686-9.432-110.686s8.545-69.351,12.093-76.432c1.035-2.07.532-5.145-.695-8.456a107,107,0,0,1-6.475-49.511l2.839-24.112.784-6.756c13.882-6.209,24.511-25.99,24.511-25.99l7.392-12.951,13.6-23.861,6.446-11.295,1.094.991,8.353,7.569,8.87,7.392c11.576,9.757,31.578,26.936,41.9,37.447,9.077,9.255,11.945,45.253,12.773,72.352.547,17.844.222,31.83.222,31.83-9.151,15.065,14.784,136.011,14.784,136.011C1098.352,649.565,1105.138,795.924,1105.138,795.924Z" transform="translate(381.662 72.435)" fill="#fff"/>
    <path id="Path_166" data-name="Path 166" d="M1040.849,365.615s-27.749,52.823-24.526,72.9,12.389,42.8,7.969,48.107a16.336,16.336,0,0,1-12.995,6.49c-4.435.3-16.262,8.56-16.262,9.447s-10.925.887-20.7,5.026-24.2,6.49-24.2,6.49-28.089-.887-30.706,1.774-5.307,18.583.3,31.283,11.827,22.176,16.528,23.905,34.535-8.264,58.736-10.63,50.472-21.54,50.472-21.54,28.932-10.349,34-27.749-6.194-113.037-6.194-113.037S1064.755,353.507,1040.849,365.615Z" transform="translate(368.336 87.231)" opacity="0.03"/>
    <path id="Path_167" data-name="Path 167" d="M1038.436,362.613s-27.749,52.837-24.5,72.9,12.389,42.8,7.954,48.121a16.263,16.263,0,0,1-12.98,6.49c-4.435.3-16.262,8.56-16.262,9.447s-10.925.887-20.7,5.012-24.2,6.49-24.2,6.49-28.089-.887-30.691,1.774-5.322,18.6.3,31.283,11.827,22.176,16.528,23.906,34.535-8.264,58.736-10.615,50.472-21.555,50.472-21.555,28.917-10.349,33.929-27.734-6.194-113.052-6.194-113.052S1062.341,350.52,1038.436,362.613Z" transform="translate(367.201 85.797)" opacity="0.03"/>
    <path id="Path_168" data-name="Path 168" d="M1040.25,363.808s-27.749,52.837-24.5,72.9,12.389,42.8,7.969,48.107a16.262,16.262,0,0,1-12.995,6.505c-4.435.3-16.262,8.56-16.262,9.432s-10.911.887-20.7,5.026-24.2,6.49-24.2,6.49-28.089-.887-30.706,1.774-5.307,18.6.3,31.283,11.827,22.176,16.528,23.906,34.535-8.264,58.736-10.63,50.472-21.54,50.472-21.54,28.932-10.349,34-27.749-6.121-113.037-6.121-113.037S1064.14,351.774,1040.25,363.808Z" transform="translate(368.063 86.377)" fill="#fff"/>
    <path id="Path_169" data-name="Path 169" d="M1004.8,459.427s-22.176-4.435-14.458,2.957,7.673,13.867,17.12,13.571S1004.8,459.427,1004.8,459.427Z" transform="translate(402.91 132.475)" opacity="0.1"/>
    <path id="Path_170" data-name="Path 170" d="M1025.787,566.58s-10.023,6.786,9.151,22.427S1025.787,566.58,1025.787,566.58Z" transform="translate(419.396 184.366)" opacity="0.1"/>
    <path id="Path_171" data-name="Path 171" d="M1012.139,604.31c0,.887-3.548,32.525,9.728,40.434S1012.139,604.31,1012.139,604.31Z" transform="translate(413.914 202.416)" opacity="0.1"/>
    <path id="Path_172" data-name="Path 172" d="M877.573,436.59c-10.7.37-33.825,3.637-21.836,26,10.6,19.8,28.414,6.564,38.438-3.474A37.773,37.773,0,0,0,877.573,436.59Z" transform="translate(337.692 122.182)" fill="#ffb0b1"/>
    <path id="Path_173" data-name="Path 173" d="M881.39,451Z" transform="translate(351.572 129.075)" fill="#ffb0b1"/>
    <path id="Path_174" data-name="Path 174" d="M880.74,451.858l.443-.458Z" transform="translate(351.261 129.267)" fill="#ffb0b1"/>
    <path id="Path_175" data-name="Path 175" d="M1020.591,349.171c-11.354,7.761-20.875,14.311-22.737,15.671-5.086,3.77-14.784,25.9-21.037,37.2-4.982,9.092-21.17,11.428-27.276,12l.784-6.756c13.882-6.209,24.512-25.99,24.512-25.99l27.439-48.107,9.447,8.589Z" transform="translate(384.173 72.717)" opacity="0.1"/>
    <path id="Path_176" data-name="Path 176" d="M1020.591,348.571c-11.354,7.761-20.875,14.311-22.737,15.686-5.086,3.755-14.784,25.886-21.037,37.181-4.982,9.092-21.17,11.428-27.276,12l.784-6.756c13.882-6.209,24.512-25.99,24.512-25.99l27.439-48.107,9.447,8.56S1015.269,344.077,1020.591,348.571Z" transform="translate(384.173 72.43)" fill="#dce7ff"/>
    <path id="Path_177" data-name="Path 177" d="M1011.2,332.108a43.849,43.849,0,1,1-37.276-43.346,43.777,43.777,0,0,1,37.276,43.346Z" transform="translate(371.714 51.225)" fill="#ffb0b1"/>
    <path id="Path_178" data-name="Path 178" d="M1086.69,479.576a38.973,38.973,0,0,1-14.148-15.2c-2.469-4.879-4.11-10.511-8.323-13.971-3.8-3.1-8.87-3.859-13.6-5.248-15.552-4.6-28.592-18.79-29.08-34.993-.237-7.628,2.144-15.242,1.064-22.8a25.249,25.249,0,0,0-4.938-11.753,40.476,40.476,0,0,0-4.273-4.6c-2.069-1.951-4.243-3.844-6.135-5.914a22.961,22.961,0,0,1-3.1-4.213,20.269,20.269,0,0,1-1.7-3.918c-2.957-9.048-.266-19.781-3.519-28.932l-.177-.5c-1.227-3.253-3.725-6.5-7.2-6.756s-6.446,2.632-9.757,3.918c-6.934,2.691-14.414-1.892-20.195-6.564s-12.3-10.009-19.648-8.974c-4.864.695-8.708,4.006-13.187,5.721a18.479,18.479,0,0,1-3.119.9,43.843,43.843,0,0,1,83.558,25.487c.074.207.148.4.236.606,1.715,4.435,3.652,8.989,5.352,12.921l8.353,7.569,8.87,7.392c11.576,9.757,31.578,26.936,41.9,37.447C1082.994,416.494,1085.833,452.478,1086.69,479.576Z" transform="translate(372.745 51.225)" opacity="0.1"/>
    <path id="Path_179" data-name="Path 179" d="M931.336,298.762c2.114-4.3,3.164-9.122,5.692-13.2,3.711-5.914,10.186-9.7,16.839-11.99,17.371-5.987,54.079-14.68,65.049,0,2.159,2.957,3.947,6.239,6.934,8.279,2.277,1.552,5.027,2.218,7.525,3.385,6.993,3.282,11.458,10.437,13.838,17.741s3.09,15.139,4.834,22.664c2.232,9.654,6.15,18.805,10.053,27.9,4.6,10.733,9.477,21.865,18.347,29.449,12.108,10.349,14.784,25,26.02,36.353,13.305,13.483,12.876,35.732,6.017,53.4-.9,2.321-1.922,4.746-1.567,7.214s2.188,4.716,3.918,6.682l7.274,8.205c-17.208,4.154-36.679-4.834-44.691-20.609-2.469-4.879-4.11-10.5-8.338-13.971-3.785-3.1-8.87-3.844-13.586-5.233-15.552-4.613-28.592-18.82-29.08-35.023-.236-7.614,2.144-15.227,1.064-22.767a25.132,25.132,0,0,0-4.952-11.827c-4.066-5.307-10.2-8.87-13.512-14.784-5.6-9.89-1.345-22.737-5.381-33.352-1.242-3.252-3.726-6.5-7.2-6.756s-6.446,2.632-9.772,3.918c-6.919,2.691-14.4-1.878-20.18-6.564s-12.3-10.009-19.662-8.959c-4.864.68-8.693,3.992-13.172,5.721-3.312,1.271-10.024,2.41-12.921-.384C914.6,318.617,928.779,304.025,931.336,298.762Z" transform="translate(369.66 40.337)" fill="#591d4b"/>
    <path id="Path_180" data-name="Path 180" d="M1081.628,464.7c-2.484-4.879-4.11-10.5-8.338-13.956-3.785-3.1-8.87-3.859-13.6-5.248-15.538-4.6-28.577-18.805-29.08-35.008-.236-7.614,2.144-15.242,1.079-22.782a25.282,25.282,0,0,0-4.953-11.753c-4.08-5.307-10.216-8.87-13.512-14.784-5.6-9.876-1.345-22.723-5.4-33.352-1.227-3.238-3.726-6.49-7.185-6.756s-6.46,2.646-9.772,3.932c-6.919,2.691-14.414-1.892-20.18-6.564s-12.315-10.009-19.662-8.974c-4.864.695-8.708,4.006-13.172,5.721-3.311,1.271-10.038,2.425-12.936-.37-6.091-5.914,8.087-20.476,10.63-25.709,2.114-4.317,3.164-9.122,5.707-13.2.133-.222.281-.444.429-.665a23.477,23.477,0,0,0-4.864,5.529c-2.528,4.08-3.578,8.87-5.692,13.2-2.558,5.233-16.735,19.84-10.63,25.709,2.957,2.809,9.609,1.656,12.921.384,4.435-1.73,8.308-5.041,13.172-5.721,7.392-1.05,13.9,4.287,19.663,8.959s13.305,9.255,20.195,6.564c3.312-1.286,6.209-4.184,9.757-3.918s5.913,3.5,7.2,6.756c4.036,10.615-.222,23.462,5.381,33.352,3.312,5.81,9.447,9.447,13.512,14.784a25.133,25.133,0,0,1,4.953,11.827c1.079,7.54-1.3,15.153-1.064,22.767.488,16.262,13.527,30.41,29.08,35.023,4.686,1.39,9.8,2.129,13.586,5.233,4.243,3.474,5.914,9.092,8.338,13.971,8.013,15.774,27.483,24.763,44.691,20.609l-3.43-3.873C1103.538,486.609,1088.444,478.123,1081.628,464.7Z" transform="translate(369.557 44.99)" opacity="0.1"/>
    <path id="Path_181" data-name="Path 181" d="M966.652,362.271c-1.937,2.957-7.481,18.1-12.108,31.312-4.332-1.685-8.264-12.433-8.264-12.433l23.092-32.85C971.738,351.552,970.186,356.949,966.652,362.271Z" transform="translate(382.614 79.946)" opacity="0.1"/>
    <path id="Path_182" data-name="Path 182" d="M967.252,361.666c-1.937,2.957-7.481,18.1-12.108,31.312-4.332-1.671-8.264-12.433-8.264-12.433l23.092-32.835C972.338,350.948,970.786,356.359,967.252,361.666Z" transform="translate(382.901 79.663)" fill="#dce7ff"/>
    <path id="Path_183" data-name="Path 183" d="M874.041,473.966l-12.8-40.375a3.77,3.77,0,0,1,2.454-4.746h0a3.785,3.785,0,0,1,4.731,2.454l12.8,40.33-1.271,8.442Z" transform="translate(341.845 118.394)" fill="#be8b87"/>
    <path id="Path_184" data-name="Path 184" d="M862.254,430.024h0A3.785,3.785,0,0,1,867,432.478l12.8,40.33-.961,6.327.931.976,1.271-8.442-12.877-40.33a3.785,3.785,0,0,0-4.731-2.454h0a3.784,3.784,0,0,0-1.966,1.478,5.147,5.147,0,0,1,.784-.34Z" transform="translate(342.042 118.414)" fill="#fff" opacity="0.1"/>
    <path id="Path_185" data-name="Path 185" d="M822.6,401.417l7.185-2.277-1.05,6.919-.222,1.523-2.1-2.188Z" transform="translate(393.286 190.944)" fill="#efc8c4"/>
    <path id="Path_186" data-name="Path 186" d="M872.42,462.157a1.479,1.479,0,0,1,.458-.385.651.651,0,0,1,.695,0,1.849,1.849,0,0,1,.252.4,1.271,1.271,0,0,0,.916.606l-.222,1.478Z" transform="translate(347.281 134.181)" fill="#727a9c"/>
    <path id="Path_187" data-name="Path 187" d="M861.13,441.7s25.679-.148,19.633,10.777-15.494,12.241-15.494,12.241Z" transform="translate(341.88 124.626)" fill="#ffb0b1"/>
    <path id="Path_188" data-name="Path 188" d="M862.415,110.05h-1.109c-44.115,0-83.129,23.344-105.571,57.79-22.442-34.446-61.456-57.79-105.571-57.79h-1.109A125.662,125.662,0,0,0,524.59,235.638c0,41.114,18.007,99.451,53.118,147.454,66.9,91.467,178.026,171.492,178.026,171.492s111.13-80.01,178.012-171.492c35.126-48,53.118-106.34,53.118-147.454A125.662,125.662,0,0,0,862.415,110.05ZM846.552,390.129a24.911,24.911,0,0,1-23.166-16H797.011a8.338,8.338,0,0,1-7.85-5.677l-8.1-24.408-25.635,89.575a8.294,8.294,0,0,1-7.954,5.987h-.517a8.19,8.19,0,0,1-7.687-6.86l-26.419-158.9L693.539,367.88a8.235,8.235,0,0,1-8,6.254H648.39a8.264,8.264,0,1,1,0-16.514h30.647L706.386,231.2a8.294,8.294,0,0,1,16.262.68l26.98,162.09L772.6,313.83a8.131,8.131,0,0,1,7.732-5.914h.162a8.249,8.249,0,0,1,7.835,5.677l14.651,44.071H823.06A24.778,24.778,0,1,1,846.6,390.188Z" transform="translate(180.885 -34.029)" fill="#54a591"/>
  </g>
</svg>
