<svg xmlns="http://www.w3.org/2000/svg" width="896.859" height="652.688" viewBox="0 0 896.859 652.688">
  <g id="banner" transform="translate(0 0)">
    <path id="Path_1" data-name="Path 1" d="M943.932,516.824c-15.684,32.359-42.84,57.117-73.908,75.956a326.717,326.717,0,0,1-39.66,20.3q-13.411,5.806-27.189,10.6a432.065,432.065,0,0,1-142.063,23.709q-11.838.012-23.676-.608-3.4-.175-6.793-.4-17.894-1.186-35.672-3.8c-.233-.033-.474-.067-.708-.108A449.351,449.351,0,0,1,521.2,625.347q-6.93-2.248-13.777-4.72c-1.232-.433-2.464-.891-3.688-1.34q-7.717-2.86-15.318-6-6.394-2.635-12.712-5.469-6.219-2.81-12.354-5.8-10.04-4.92-19.863-10.314-7.58-4.2-14.959-8.708a413.436,413.436,0,0,1-35.372-24.209q-6.019-4.6-11.871-9.424c-2.706-2.231-5.386-4.512-8.109-6.726A102.324,102.324,0,0,0,354.926,530.2a65.45,65.45,0,0,0-6.11-2.7,76.506,76.506,0,0,0-24.267-4.72c-14.144-.558-28.745,2.073-42.423,5.969-6.5,1.84-12.928,3.954-19.355,6.119q-3.958,1.336-7.909,2.681c-5.444,1.856-10.889,3.671-16.383,5.328-1.832.549-3.663,1.091-5.5,1.6a161.68,161.68,0,0,1-22.4,4.762,119.356,119.356,0,0,1-50.357-4.387l-1.39-.433c-2.331-.733-4.637-1.532-6.935-2.406l-1.39-.533q-3.321-1.286-6.518-2.755l-1.39-.633c-2.048-.957-4.054-1.956-6.027-3.014-.167-.083-.325-.167-.491-.258-.766-.4-1.523-.832-2.273-1.24A137.041,137.041,0,0,1,101.2,508.2c-.275-.275-.533-.558-.832-.832-1.324-1.432-2.623-2.889-3.88-4.379-.466-.549-.932-1.1-1.39-1.665q-2.235-2.735-4.321-5.586c-.208-.275-.408-.558-.608-.832a120.737,120.737,0,0,1-14.044-25.391c-.117-.275-.225-.558-.325-.833q-1.661-4.283-3.038-8.716c-.375-1.232-.732-2.5-1.049-3.729-.108-.366-.208-.741-.3-1.107-4.553-18.081-5.045-36.887-5.045-55.585v-6.535c.133-30.244.6-61,5.062-90.832a5.025,5.025,0,0,1,.091-.616,286.4,286.4,0,0,1,6.086-29.82,221.109,221.109,0,0,1,10.248-30.219c10.265-24.142,25.191-46.111,41.766-66.474,41.707-51.206,96.46-94.254,160.544-110.312,69.055-17.341,145.8-.724,201.5,43.622,16.425,13.07,31.235,28.471,49.441,38.844q.924.537,1.873,1.049,3.609,1.96,7.376,3.563a76.108,76.108,0,0,0,10.248,3.538c11.064,2.972,22.627,3.238,33.657-.45.9-.308,1.8-.633,2.689-.991,1.89-.749,3.7-1.449,5.436-2.1,11.871-4.42,21.012-6.568,35.439-5.794a342.441,342.441,0,0,1,100.2,20.97c1.3.474,2.6.966,3.888,1.457,83.839,32.092,155.924,95.819,193.369,177.71q1.5,3.247,2.888,6.543C960.507,404.829,968.565,465.993,943.932,516.824Z" transform="translate(-62.18 -57.987)" fill="rgba(244,204,38,0.25)"/>
    <path id="Path_2" data-name="Path 2" d="M63.583,512.617v.333l-.125.15Z" transform="translate(-10.63 -85.872)" fill="#cacaca"/>
    <path id="Path_3" data-name="Path 3" d="M300.694,630.833q-3.958,1.336-7.909,2.681v-2.681Z" transform="translate(-100.109 -153.948)" fill="#fff"/>
    <rect id="Rectangle_6" data-name="Rectangle 6" width="19.498" height="48.746" transform="translate(478.925 48.923)" fill="#e4e4e4"/>
    <path id="Path_4" data-name="Path 4" d="M667.135,170.693V661.35a449.335,449.335,0,0,1-73.067-17.124q-6.93-2.248-13.777-4.72c-1.232-.433-2.464-.891-3.688-1.34q-7.717-2.859-15.318-6-6.393-2.635-12.712-5.469-6.219-2.81-12.354-5.8-10.04-4.92-19.863-10.314-7.58-4.2-14.959-8.708V170.693Z" transform="translate(-135.055 -76.867)" fill="#e4e4e4"/>
    <path id="Path_5" data-name="Path 5" d="M767.333,170.693V666.27q-11.838.012-23.676-.608-3.4-.175-6.793-.4-17.894-1.186-35.672-3.8c-.233-.033-.474-.067-.708-.108V170.693Z" transform="translate(-168.406 -76.867)" fill="#cacaca"/>
    <rect id="Rectangle_7" data-name="Rectangle 7" width="25.069" height="25.069" transform="translate(396.286 142.571)" fill="#fff"/>
    <rect id="Rectangle_8" data-name="Rectangle 8" width="25.069" height="25.069" transform="translate(436.676 142.571)" fill="#fff"/>
    <rect id="Rectangle_9" data-name="Rectangle 9" width="25.069" height="25.069" transform="translate(477.065 142.571)" fill="#fff"/>
    <rect id="Rectangle_10" data-name="Rectangle 10" width="25.069" height="25.069" transform="translate(396.983 199.674)" fill="#fff"/>
    <rect id="Rectangle_11" data-name="Rectangle 11" width="25.069" height="25.069" transform="translate(437.372 199.674)" fill="#fff"/>
    <rect id="Rectangle_12" data-name="Rectangle 12" width="25.069" height="25.069" transform="translate(477.761 199.674)" fill="#fff"/>
    <rect id="Rectangle_13" data-name="Rectangle 13" width="25.069" height="25.069" transform="translate(397.679 256.775)" fill="#fff"/>
    <rect id="Rectangle_14" data-name="Rectangle 14" width="25.069" height="25.069" transform="translate(438.068 256.775)" fill="#fff"/>
    <rect id="Rectangle_15" data-name="Rectangle 15" width="25.069" height="25.069" transform="translate(478.458 256.775)" fill="#fff"/>
    <rect id="Rectangle_16" data-name="Rectangle 16" width="25.069" height="25.069" transform="translate(398.376 313.878)" fill="#fff"/>
    <rect id="Rectangle_17" data-name="Rectangle 17" width="25.069" height="25.069" transform="translate(438.764 313.878)" fill="#fff"/>
    <rect id="Rectangle_18" data-name="Rectangle 18" width="25.069" height="25.069" transform="translate(479.154 313.878)" fill="#fff"/>
    <rect id="Rectangle_19" data-name="Rectangle 19" width="25.069" height="25.069" transform="translate(399.072 370.98)" fill="#fff"/>
    <rect id="Rectangle_20" data-name="Rectangle 20" width="25.069" height="25.069" transform="translate(439.461 370.98)" fill="#fff"/>
    <rect id="Rectangle_21" data-name="Rectangle 21" width="25.069" height="25.069" transform="translate(479.851 370.98)" fill="#fff"/>
    <rect id="Rectangle_22" data-name="Rectangle 22" width="25.069" height="25.069" transform="translate(399.767 428.082)" fill="#fff"/>
    <rect id="Rectangle_23" data-name="Rectangle 23" width="25.069" height="25.069" transform="translate(440.157 428.082)" fill="#fff"/>
    <rect id="Rectangle_24" data-name="Rectangle 24" width="25.069" height="25.069" transform="translate(480.547 428.082)" fill="#fff"/>
    <rect id="Rectangle_25" data-name="Rectangle 25" width="25.069" height="25.069" transform="translate(400.464 485.184)" fill="#fff"/>
    <rect id="Rectangle_26" data-name="Rectangle 26" width="25.069" height="25.069" transform="translate(440.854 485.184)" fill="#fff"/>
    <rect id="Rectangle_27" data-name="Rectangle 27" width="25.069" height="25.069" transform="translate(481.243 485.184)" fill="#fff"/>
    <path id="Path_6" data-name="Path 6" d="M568.292,709.393V722.4q-6.394-2.635-12.712-5.469-6.219-2.81-12.354-5.8v-1.74Z" transform="translate(-142.062 -167.108)" fill="#fff"/>
    <path id="Path_7" data-name="Path 7" d="M616.81,709.393v25.074H609.2q-6.93-2.248-13.778-4.72c-1.232-.433-2.464-.891-3.688-1.34V709.393Z" transform="translate(-150.188 -167.108)" fill="#fff"/>
    <rect id="Rectangle_28" data-name="Rectangle 28" width="25.069" height="25.069" transform="translate(481.939 542.287)" fill="#fff"/>
    <rect id="Rectangle_29" data-name="Rectangle 29" width="19.498" height="28.891" transform="translate(706.17 297.165)" fill="#e4e4e4"/>
    <path id="Path_8" data-name="Path 8" d="M918.085,446.673V688.792A432.062,432.062,0,0,1,776.022,712.5q-11.838.013-23.676-.608V446.673Z" transform="translate(-177.093 -123.098)" fill="#e4e4e4"/>
    <path id="Path_9" data-name="Path 9" d="M1018.288,446.673V657.891a326.705,326.705,0,0,1-39.66,20.3q-13.411,5.807-27.189,10.6V446.673Z" transform="translate(-210.445 -123.098)" fill="#cacaca"/>
    <rect id="Rectangle_30" data-name="Rectangle 30" width="25.069" height="25.069" transform="translate(607.982 370.98)" fill="#fff"/>
    <rect id="Rectangle_31" data-name="Rectangle 31" width="25.069" height="25.069" transform="translate(648.372 370.98)" fill="#fff"/>
    <rect id="Rectangle_32" data-name="Rectangle 32" width="25.069" height="25.069" transform="translate(688.761 370.98)" fill="#fff"/>
    <rect id="Rectangle_33" data-name="Rectangle 33" width="25.069" height="25.069" transform="translate(608.678 428.082)" fill="#fff"/>
    <rect id="Rectangle_34" data-name="Rectangle 34" width="25.069" height="25.069" transform="translate(649.068 428.082)" fill="#fff"/>
    <rect id="Rectangle_35" data-name="Rectangle 35" width="25.069" height="25.069" transform="translate(689.457 428.082)" fill="#fff"/>
    <rect id="Rectangle_36" data-name="Rectangle 36" width="25.069" height="25.069" transform="translate(609.375 485.184)" fill="#fff"/>
    <rect id="Rectangle_37" data-name="Rectangle 37" width="25.069" height="25.069" transform="translate(649.765 485.184)" fill="#fff"/>
    <rect id="Rectangle_38" data-name="Rectangle 38" width="25.069" height="25.069" transform="translate(690.153 485.184)" fill="#fff"/>
    <rect id="Rectangle_39" data-name="Rectangle 39" width="25.069" height="25.069" transform="translate(610.071 542.287)" fill="#fff"/>
    <rect id="Rectangle_40" data-name="Rectangle 40" width="25.069" height="25.069" transform="translate(650.461 542.287)" fill="#fff"/>
    <rect id="Rectangle_41" data-name="Rectangle 41" width="25.069" height="25.069" transform="translate(690.85 542.287)" fill="#fff"/>
    <path id="Path_10" data-name="Path 10" d="M775.912,775.051s8.918,31.717,46.267,30.275,53.5-30.852,53.5-30.852Z" transform="translate(-181.041 -178.01)" fill="#3f3d56"/>
    <path id="Path_11" data-name="Path 11" d="M94.184,565.577,83.513,585.12,85.245,621.8l255.7,75.979L452.3,711.475,430.527,578.684,354.352,565.2l-114.272,3.265L143.2,550.584Z" transform="translate(-13.99 -92.232)" fill="#2f2e41"/>
    <path id="Path_12" data-name="Path 12" d="M191.456,757.757h-6.6a33.419,33.419,0,0,1-30.406-19.293c-10.176-22.215-7.162-52.935-7.117-53.373,2.306-26.552,16.858-43.875,36.214-43.089,21.368.862,39.588,74.769,40.354,77.915a27.545,27.545,0,0,1-.96,15.983A33.308,33.308,0,0,1,191.456,757.757Z" transform="translate(-75.668 -155.815)" fill="#3f3d56"/>
    <path id="Path_13" data-name="Path 13" d="M512.763,813.111a23.265,23.265,0,0,1-3.369-.325,52.2,52.2,0,0,1-39.416-30.005c-2.676-5.82-5.251-11.779-7.653-17.713-9.644-23.826-1.559-65.478,11.577-81.6,11.594-14.23,23.264-14.117,40.929-13.951,1.814.018,3.693.035,5.643.038,19.614.032,40.35,72.184,47.164,95.895.542,1.886.991,3.448,1.338,4.618,1.068,3.6.941,7.912-.377,12.807a39.288,39.288,0,0,1-34.1,28.5C522.842,812.528,515.528,813.111,512.763,813.111Z" transform="translate(-127.8 -160.422)" fill="#3f3d56"/>
    <path id="Path_14" data-name="Path 14" d="M146.438,677.294s-7.5-33.447,3.748-56.225l11.334-27.392,42.828,39.79,9.78,62.262L381.72,721.121S371.34,619.05,436.5,615.014s96.083,106.107,96.083,106.107L565.1,744.764l226.631-16.724s4,10.957-1.748,16.723-280.82,23.643-280.82,23.643-13.84-136.67-68.624-123.984-38.4,108.85-38.4,108.85L206.412,718.814s-6.343-92.844-38.637-92.844S146.438,677.294,146.438,677.294Z" transform="translate(-75.183 -147.724)" fill="#3f3d56"/>
    <path id="Path_15" data-name="Path 15" d="M131.293,482.955l36.923-57.877,157.431-9.226,174.731,2.307,81.31,75.544L330.26,508.119,127.849,497.162Z" transform="translate(-21.417 -69.662)" fill="#3f3d56"/>
    <path id="Path_16" data-name="Path 16" d="M186.307,554.445s-31.413.655-34.873,60.052c0,0,33.447-60.55,62.28,74.39L385.85,716.856s-6.343-112.451,58.821-103.8S525.4,724.929,525.4,724.929s12.687,25.373,82.464,21.337,174.154-10.38,185.111-24.8c0,0,25.373-85.924-53.63-141.284L636.7,565.191,404.3,569.8Z" transform="translate(-76.43 -141.152)" fill="#f4cc26"/>
    <path id="Path_17" data-name="Path 17" d="M283.14,601.4H263.534a4.037,4.037,0,1,1,0-8.073H283.14a4.037,4.037,0,1,1,0,8.073Z" transform="translate(-94.532 -147.666)" fill="#cacaca"/>
    <circle id="Ellipse_3" data-name="Ellipse 3" cx="12.687" cy="12.687" r="12.687" transform="translate(474.347 553.791)" fill="#fff"/>
    <path id="Path_18" data-name="Path 18" d="M629.375,651.8c-8.686,0-19.056-3.708-28.338-10.858-16.378-12.617-23.259-31.247-15.339-41.529s27.689-8.381,44.068,4.235c7.915,6.1,13.875,13.761,16.78,21.578,2.923,7.864,2.411,14.949-1.442,19.95C641.673,649.633,636.015,651.8,629.375,651.8Z" transform="translate(-148.626 -147.575)" fill="#fff"/>
    <path id="Path_19" data-name="Path 19" d="M899.883,634.228c-6.39,0-17.869-6.471-29.233-16.971-6.812-6.294-12.455-13.041-15.891-19-3.489-6.05-4.284-10.6-2.238-12.816s6.646-1.781,12.953,1.219c6.209,2.954,13.38,8.047,20.192,14.342,14.376,13.283,22.339,27.258,18.129,31.814A5.106,5.106,0,0,1,899.883,634.228Z" transform="translate(-193.688 -146.111)" fill="#fff"/>
    <path id="Path_20" data-name="Path 20" d="M256.57,543.94q-.206,0-.413-.019l-41.7-3.877a4.486,4.486,0,0,1-3.4-6.831l23.514-37.91a4.483,4.483,0,0,1,3.614-2.117l31.1-1.372a4.486,4.486,0,0,1,4.495,5.767l-12.916,43.159A4.5,4.5,0,0,1,256.57,543.94Z" transform="translate(-86.306 -130.659)" fill="#fff"/>
    <path id="Path_21" data-name="Path 21" d="M380.815,550.541q-.617,0-1.243-.061l-72.088-7.1a12.585,12.585,0,0,1-10.91-15.834l10.37-38.053a12.527,12.527,0,0,1,11.7-9.269l58.178-2.032a12.656,12.656,0,0,1,12.941,11.128l4.8,41.414a12.562,12.562,0,0,1-.207,4.139l-1.262,5.767A12.59,12.59,0,0,1,380.815,550.541Z" transform="translate(-100.669 -128.378)" fill="#fff"/>
    <path id="Path_22" data-name="Path 22" d="M461,552.685a9.38,9.38,0,0,1-9.1-7.236L439.181,490.48a9.341,9.341,0,0,1,9.1-11.446H599.088a9.391,9.391,0,0,1,6.705,2.837l49.258,50.786a9.341,9.341,0,0,1-6.5,15.842l-187.347,4.183Z" transform="translate(-124.592 -128.519)" fill="#fff"/>
    <path id="Path_23" data-name="Path 23" d="M236.13,481.778l1.287-2.018s7.5-20.76,110.72-24.22,199.528-1.73,221.44,17.3l-178.19-.577L240.877,482.643Z" transform="translate(-90.618 -124.343)" fill="#f4cc26"/>
    <path id="Path_24" data-name="Path 24" d="M173.465,665.026c-10.829,0-19.607,18.073-19.607,40.367s8.778,40.367,19.607,40.367,19.607-18.073,19.607-40.367S184.294,665.026,173.465,665.026Zm.865,8.65c2.389,0,4.325,4.647,4.325,10.38s-1.936,10.38-4.325,10.38S170,689.789,170,684.056s1.937-10.38,4.326-10.38Zm2.6,31.717a2.931,2.931,0,1,1-2.883-3.46,3.211,3.211,0,0,1,2.883,3.46Zm-15.065,2.221c-3.708.286-6.81-.734-6.93-2.279s2.79-3.03,6.5-3.316,6.81.734,6.93,2.279-2.789,3.029-6.5,3.316Zm12.47,29.5c-2.389,0-4.325-4.647-4.325-10.38s1.936-10.38,4.325-10.38,4.325,4.647,4.325,10.38-1.936,10.38-4.324,10.38Zm11.173-29.5c-3.708.286-6.811-.734-6.93-2.279s2.79-3.03,6.5-3.316,6.81.734,6.93,2.279-2.789,3.029-6.5,3.316Z" transform="translate(-76.836 -159.676)" fill="#e4e4e4"/>
    <path id="Path_25" data-name="Path 25" d="M500.182,697.583c-17.2,0-31.14,23.107-31.14,51.612s13.942,51.612,31.14,51.612,31.14-23.107,31.14-51.612S517.379,697.583,500.182,697.583Zm-18.6,55.485c-5.022.388-9.225-.994-9.387-3.087s3.779-4.1,8.8-4.492,9.225.994,9.387,3.087-3.779,4.1-8.8,4.492ZM500.2,792.445c-3.235,0-5.858-6.295-5.858-14.06s2.623-14.06,5.858-14.06,5.859,6.295,5.859,14.06-2.623,14.06-5.858,14.06Zm-4.632-42.962c0-3.057,2.065-5.536,4.613-5.536s4.613,2.479,4.613,5.536-2.066,5.536-4.613,5.536-4.614-2.478-4.614-5.536Zm4.632-14.841c-3.235,0-5.858-6.295-5.858-14.06s2.623-14.06,5.858-14.06,5.859,6.295,5.859,14.06-2.623,14.061-5.858,14.061Zm19.747,17.273c-5.023.388-9.225-.994-9.387-3.087s3.779-4.1,8.8-4.492,9.225.994,9.387,3.087S524.97,751.527,519.948,751.915Z" transform="translate(-129.635 -165.13)" fill="#e4e4e4"/>
    <path id="Path_26" data-name="Path 26" d="M375.525,571.577l6.92,16.147s11.533,4.613,19.03-10.957l-15.191-15.191Z" transform="translate(-113.969 -142.346)" fill="#cacaca"/>
    <path id="Path_27" data-name="Path 27" d="M359.57,572.057c-12.4,0-22.49-6.726-22.49-14.993s10.089-14.993,22.49-14.993,22.49,6.726,22.49,14.993S371.971,572.057,359.57,572.057Z" transform="translate(-107.529 -139.079)" fill="#cacaca"/>
    <path id="Path_28" data-name="Path 28" d="M852.814,641.474l-128.932,3.769s-28.217,7.915-31.1,30.529c0,0,4.031,18.468,14.4,18.468s169.3-8.292,169.3-8.292,10.365-15.83,1.727-27.136S852.814,641.474,852.814,641.474Z" transform="translate(-167.116 -155.731)" fill="#3f3d56"/>
    <rect id="Rectangle_42" data-name="Rectangle 42" width="151.283" height="1.73" transform="matrix(0.999, -0.033, 0.033, 0.999, 545.656, 497.948)" fill="#e4e4e4"/>
    <rect id="Rectangle_43" data-name="Rectangle 43" width="164.614" height="1.73" transform="translate(537.918 505.883) rotate(-2.594)" fill="#e4e4e4"/>
    <rect id="Rectangle_44" data-name="Rectangle 44" width="176.605" height="1.73" transform="translate(531.764 515.346) rotate(-3.074)" fill="#e4e4e4"/>
    <g id="Group_142" data-name="Group 142" transform="translate(0 289.726)">
      <path id="Path_2185" data-name="Path 2185" d="M175.977,612.929a7.844,7.844,0,0,1,2.533-11.757l-1.638-17.849,10.6-3.641,1.96,25.24a7.886,7.886,0,0,1-13.46,8.009Z" transform="translate(-80.264 -435.106)" fill="#ffb8b8"/>
      <path id="Path_2186" data-name="Path 2186" d="M187.324,494.335s7.277-15.272,13.743-9.9S192.2,534.96,192.2,534.96L189.871,578.8l-12.289-1.229-3.475-42.709Z" transform="translate(-80.228 -418.958)" fill="#e6e6e6"/>
      <path id="Path_2187" data-name="Path 2187" d="M72.732,760.885l9.122,7.384,32.825-31.676-13.464-10.9Z" transform="translate(-63.246 -459.566)" fill="#ffb8b8"/>
      <path id="Path_2188" data-name="Path 2188" d="M70.906,762.125l17.966,14.541h0a14.731,14.731,0,0,1,2.18,20.717l-.3.372L61.337,773.947Z" transform="translate(-61.337 -465.668)" fill="#2f2e41"/>
      <path id="Path_2189" data-name="Path 2189" d="M225.028,783.48h11.737l5.581-45.274h-17.32Z" transform="translate(-88.758 -461.661)" fill="#ffb8b8"/>
      <path id="Path_2190" data-name="Path 2190" d="M221.431,787.987h23.115a14.73,14.73,0,0,1,14.731,14.729v.479H221.432Z" transform="translate(-88.156 -470)" fill="#2f2e41"/>
      <path id="Path_2191" data-name="Path 2191" d="M222.6,537.647s22.02,26.8,17.233,53.612-8.616,46.911-8.616,46.911l-7.655,60.312s2.872,16.428-.957,20.659c0,0,5.744,9.977-4.787,13.806s-16.217-1.321-16.217-1.321-7.721-11.123-2.934-13.991l2.017-118.373L124,699.44s-1.409,12.183-11.236,12.315L101.02,720.5l-13.4-7.661,6.7-8.616s-3.829-9.574,4.787-11.488l49.783-65.1,12.446-33.508s6.7-25.849,24.891-36.38v-11.2Z" transform="translate(-65.74 -428.064)" fill="#2f2e41"/>
      <path id="Path_2192" data-name="Path 2192" d="M202.055,480.568h0a18.281,18.281,0,0,1,24.1-3.4l.8.531h0a70.566,70.566,0,0,1,16.519,34.011l3.585,19.6-45,9.747-10.548-36.38a20.553,20.553,0,0,1,10.548-24.107Z" transform="translate(-83.006 -417.418)" fill="#e6e6e6"/>
      <path id="Path_2193" data-name="Path 2193" d="M289.5,616.8a8.977,8.977,0,0,1-5.121-12.777L271.4,588.134l7.73-10.242,18.015,22.691A9.026,9.026,0,0,1,289.5,616.8Z" transform="translate(-96.526 -434.806)" fill="#ffb8b8"/>
      <path id="Path_2194" data-name="Path 2194" d="M227.26,495.454s-2.872-19.147,6.7-18.19S257.9,530.876,257.9,530.876l25.849,43.081-12.446,6.7-30.636-38.294Z" transform="translate(-89.064 -417.943)" fill="#e6e6e6"/>
      <path id="Path_2195" data-name="Path 2195" d="M238.516,455.532H192.927A3.541,3.541,0,0,1,189.39,452V432.344a26.331,26.331,0,1,1,52.663,0h0v19.65A3.541,3.541,0,0,1,238.516,455.532Z" transform="translate(-82.788 -406.013)" fill="#2f2e41"/>
      <circle id="Ellipse_430" data-name="Ellipse 430" cx="19.305" cy="19.305" r="19.305" transform="translate(119.039 10.451)" fill="#ffb8b8"/>
      <path id="Path_2196" data-name="Path 2196" d="M252.138,435.734h-24.3l-.249-4-1.246,4h-3.74l-.494-7.932-2.469,7.932h-7.238v-.393c0-11.485,8.144-20.829,18.157-20.829h3.425c10.01,0,18.157,9.344,18.157,20.829Z" transform="translate(-86.644 -407.437)" fill="#2f2e41"/>
      <path id="Path_2197" data-name="Path 2197" d="M226.16,460.6a5.831,5.831,0,0,1-.887-.068l-28.918-4.454v-30.12a11.6,11.6,0,0,1,11.6-11.6h20.232l-.786.8c-10.965,11.161-2.7,29.266,3.2,39.065a3.861,3.861,0,0,1-.393,4.575,5.253,5.253,0,0,1-4.044,1.8Z" transform="translate(-83.955 -407.41)" fill="#2f2e41"/>
    </g>
  </g>
</svg>
