<svg id="Group_24" data-name="Group 24" xmlns="http://www.w3.org/2000/svg" width="2366.978" height="1832.285" viewBox="0 0 2366.978 1832.285">
  <path id="Path_268" data-name="Path 268" d="M1152.272,460.114a872.6,872.6,0,0,1-286.238-48.049c-123.419-42.672-224.526-101.53-300.512-174.94C421.785,98.263,303.944,77.335,230.412,84.226c-79.6,7.463-125.928,48.222-126.387,48.633l-3.166-3.53c.468-.42,47.754-42.1,128.8-49.8,47.529-4.507,97.232,3.346,147.732,23.348,62.976,24.943,127.38,68.962,191.422,130.833C644.3,306.642,744.822,365.14,867.582,407.583c225.362,77.916,479.354,59.052,696.849-51.758,72.011-36.691,143.184-61.735,211.54-74.437,86.2-16.021,167.942-12.3,242.984,11.045,164.9,51.3,277.541,48.582,342.993,37.271,70.62-12.206,102.661-36.634,102.976-36.88l2.913,3.743c-1.327,1.031-33.3,25.4-105.083,37.809-65.968,11.4-179.41,14.166-345.206-37.417-167.872-52.221-337.9,5.482-450.963,63.089a910.2,910.2,0,0,1-345.312,97.414Q1186.648,460.113,1152.272,460.114Z" transform="translate(-100.859 -43.477)" fill="#3f3d56"/>
  <circle id="Ellipse_29" data-name="Ellipse 29" cx="48.056" cy="48.056" r="48.056" transform="translate(993.785 379.368)" fill="#f5d452"/>
  <circle id="Ellipse_30" data-name="Ellipse 30" cx="48.056" cy="48.056" r="48.056" transform="translate(1738.295 187.313)" fill="#f5d452"/>
  <circle id="Ellipse_31" data-name="Ellipse 31" cx="48.056" cy="48.056" r="48.056" transform="translate(189.998 0)" fill="#f5d452"/>
  <path id="Path_269" data-name="Path 269" d="M685.6,816.585V1280.9h73.006V857.468h292.023V1280.9h73.005V352.269h-73.005c-24.192,0-61.325,125.995-61.325,252.6,0,95.429,11.145,177.212,26.992,211.716Zm365.028,0h-.71c.239-.519.474-1.067.71-1.608Z" transform="translate(700.855 332.148)" fill="#3f3d56"/>
  <path id="Path_270" data-name="Path 270" d="M862.447,255.342h0c-59.926,0-108.505,53.913-108.505,120.417v84.495h25.987l15.045-31.306-3.761,31.306H958.244l13.677-28.46-3.419,28.46h18.806V393.91C987.308,317.381,931.406,255.342,862.447,255.342Z" transform="translate(794.551 199.256)" fill="#2f2e41"/>
  <path id="Path_271" data-name="Path 271" d="M958.409,488.168l-66.621,28.314-231.509,188.2a68.141,68.141,0,0,0-14.99,36.641c-1.666,21.652-71.618,134.908-46.635,149.9s114.922,59.96,119.918,29.98S750.218,762.98,750.218,762.98L973.4,563.116Z" transform="translate(574.261 518.472)" fill="#2f2e41"/>
  <path id="Path_272" data-name="Path 272" d="M734.59,664.119,706.276,747.4s29.979,31.645,14.99,58.293v91.6H697.949l-6.662-48.3s-26.558,47.69-39.972,48.3c-28.121,1.279-83.808,11.282-85.473-3.708s42.169-29.6,42.169-29.6l46.635-128.246,19.986-78.28Z" transform="translate(536.591 750.576)" fill="#2f2e41"/>
  <path id="Path_273" data-name="Path 273" d="M1056.917,525.264s14.99,146.567-28.314,173.215-234.84,111.59-234.84,111.59S875.374,886.684,858.719,905s-91.6,68.287-101.6,58.294S635.537,833.387,648.862,795.08s198.2-163.222,198.2-163.222l21.652-78.28,6.662-63.29,69.952-44.969Z" transform="translate(648.969 459.724)" fill="#2f2e41"/>
  <circle id="Ellipse_32" data-name="Ellipse 32" cx="69.433" cy="69.433" r="69.433" transform="translate(1560.146 504.877)" fill="#ffb9b9"/>
  <path id="Path_274" data-name="Path 274" d="M857.068,317.825s-3.331,63.29,48.3,83.276S777.122,551,777.122,551V406.1s23.317-24.983,0-63.29Z" transform="translate(826.333 284.924)" fill="#ffb9b9"/>
  <path id="Path_275" data-name="Path 275" d="M911.609,443.211l-13.324,64.956L858.312,731.348s33.311,94.935-11.659,93.27-23.318-103.263-23.318-103.263l23.318-184.874V464.863Z" transform="translate(882.549 456.835)" fill="#ffb9b9"/>
  <path id="Path_276" data-name="Path 276" d="M798.436,429.865l-14.99,58.294L715.16,653.046s-46.635,78.28-8.327,76.614,38.307-76.614,38.307-76.614L823.419,519.8V444.855Z" transform="translate(709.251 438.536)" fill="#ffb9b9"/>
  <path id="Path_277" data-name="Path 277" d="M762.633,634.978,817.6,686.61s38.307-8.328,53.3,36.642,24.983,73.283,24.983,73.283L875.89,808.193l-24.983-34.976s-14.99,63.29-29.979,68.287-89.939,38.307-83.277,0l36.642-53.3s5-59.959-9.993-64.956-54.962-54.963-54.962-54.963Z" transform="translate(733.395 719.757)" fill="#2f2e41"/>
  <path id="Path_278" data-name="Path 278" d="M931.31,546.395s-156.56-56.628-166.553-51.631a75.115,75.115,0,0,1-23.46,6.089l.142-22.744s51.631-18.321,79.946-6.662,114.921,63.29,114.921,63.29Z" transform="translate(777.215 490.224)" fill="#3f3d56"/>
  <path id="Path_279" data-name="Path 279" d="M836.308,474.852s44.969-51.631,58.293-83.277a81.768,81.768,0,0,1,43.227-42.506s100.009,22.52,98.343,62.492-63.29,101.6-63.29,101.6,8.328,221.516-36.642,218.184a96.453,96.453,0,0,1-19.986-39.973c-5-23.317-159.891-48.3-159.891-48.3s-13.324,23.317-14.99,13.324S754.7,401.568,754.7,401.568l79.424-52.5Z" transform="translate(777.141 327.761)" fill="#d0cde1"/>
  <path id="Path_280" data-name="Path 280" d="M907.3,370.339l1.115.626a22.976,22.976,0,0,1,11.733,20.042l-.017,123.6a23.161,23.161,0,0,0,8.239,17.627c6.416,5.457,12.366,13.321.088,17.413-19.986,6.662-98.266,39.973-99.932,28.314s-5-24.983,0-24.983c3.912,0,27.218-119.432,45.945-170.5A22.982,22.982,0,0,1,907.3,370.339Z" transform="translate(893.186 352.893)" fill="#d0cde1"/>
  <path id="Path_281" data-name="Path 281" d="M798.941,368.752l-23.318,6.662L748.975,490.336S717.33,497,727.323,508.657s51.631,41.638,51.631,41.638Z" transform="translate(755.381 354.747)" fill="#d0cde1"/>
  <path id="Path_282" data-name="Path 282" d="M882.913,282.581a56.906,56.906,0,0,0-44.9-22.913h-2.13c-41.073,0-74.37,37.167-74.37,83.014h13.762l2.222-16.918,3.259,16.918h81.625l6.839-14.313-1.71,14.313h16.058q11.24,55.82-32.3,111.639h27.354L892.3,425.7l-3.419,28.626h52.144l10.258-65.839C951.283,339.175,922.634,297.364,882.913,282.581Z" transform="translate(804.931 205.187)" fill="#2f2e41"/>
  <path id="Path_283" data-name="Path 283" d="M293.02,890.2c17.522-38.15,29.844-128.575,29.844-234.088,0-139.982-41.056-279.291-67.8-279.291H174.34V1403.579h80.72V935.4H577.939v468.175h80.72V890.2Zm-37.961-1.778c.261.6.521,1.2.785,1.778h-.785Z" transform="translate(-0.113 365.812)" fill="#3f3d56"/>
  <path id="Path_284" data-name="Path 284" d="M386.858,514.342s97.213,40.308,66.389,64.019-94.842-28.453-92.471-35.566-9.484-23.711-9.484-23.711Z" transform="translate(242.498 554.358)" fill="#9f616a"/>
  <path id="Path_285" data-name="Path 285" d="M337.147,380.342l30.824,28.453,7.113,82.987,23.71,87.729S439.1,662.5,431.989,679.094s7.113,21.339,7.113,21.339l-54.534,21.34s-59.276-66.389-59.276-80.616S337.147,380.342,337.147,380.342Z" transform="translate(206.851 370.637)" fill="#575a88"/>
  <path id="Path_286" data-name="Path 286" d="M337.147,380.342l30.824,28.453,7.113,82.987,23.71,87.729S439.1,662.5,431.989,679.094s7.113,21.339,7.113,21.339l-54.534,21.34s-59.276-66.389-59.276-80.616S337.147,380.342,337.147,380.342Z" transform="translate(206.851 370.637)" opacity="0.1"/>
  <path id="Path_287" data-name="Path 287" d="M461.568,752.681s-11.855,54.534-14.226,59.277,45.05,21.339,45.05,21.339L549.3,792.989s-23.711-52.163-23.711-61.647Z" transform="translate(374.069 851.876)" fill="#575a88"/>
  <path id="Path_288" data-name="Path 288" d="M418.43,516.342l16.6,18.968s343.8,42.679,350.916,109.068,56.905,379.368,28.453,388.852-101.955,45.05-101.955,26.082S665.02,779.528,674.5,732.107c0,0-410.192-52.163-419.676-111.439s9.484-85.358,9.484-85.358Z" transform="translate(106.599 557.1)" fill="#2f2e41"/>
  <path id="Path_289" data-name="Path 289" d="M418.43,516.342l16.6,18.968s343.8,42.679,350.916,109.068,56.905,379.368,28.453,388.852-101.955,45.05-101.955,26.082S665.02,779.528,674.5,732.107c0,0-410.192-52.163-419.676-111.439s9.484-85.358,9.484-85.358Z" transform="translate(106.599 557.1)" opacity="0.1"/>
  <path id="Path_290" data-name="Path 290" d="M466.431,782.034s-9.484-21.339-14.226-14.226-21.34,90.1-4.742,90.1S615.807,895.844,637.147,891.1s61.647,2.371,56.905-21.339S665.6,843.681,665.6,843.681s-87.729-52.163-92.471-78.245S542.3,753.581,542.3,753.581v16.6S492.513,808.115,466.431,782.034Z" transform="translate(364.464 877.058)" fill="#2f2e41"/>
  <path id="Path_291" data-name="Path 291" d="M277.5,313.388S294.1,394,258.531,401.117s45.05,54.534,45.05,54.534L355.744,484.1l37.937-37.937s-34.38-69.946-8.3-122.109S277.5,313.388,277.5,313.388Z" transform="translate(102.896 257.391)" fill="#9f616a"/>
  <path id="Path_292" data-name="Path 292" d="M393.681,446.167,355.744,484.1l-52.163-28.453s-80.616-47.421-45.05-54.534c22.881-4.576,24.161-39.573,22.193-63.947a220.48,220.48,0,0,0-3.225-23.782s133.964-41.493,107.883,10.67a90.952,90.952,0,0,0-8.156,25.512C369.236,396.446,393.681,446.167,393.681,446.167Z" transform="translate(102.896 257.391)" fill="#9f616a"/>
  <path id="Path_293" data-name="Path 293" d="M265.433,719.438v54.534h90.1l7.113-21.34-9.484-56.905Z" transform="translate(363.922 953.879)" fill="#575a88"/>
  <path id="Path_294" data-name="Path 294" d="M209.292,552.794s0,139.892,56.905,144.634,260.815,30.824,260.815,30.824,11.855,232.363,33.195,308.237,2.371,80.616,21.339,85.358,99.584-11.855,97.213-28.453S666.9,657.121,666.9,657.121s21.34-90.1-263.186-132.779Z" transform="translate(47.809 568.069)" fill="#2f2e41"/>
  <path id="Path_295" data-name="Path 295" d="M387.523,807.551s-14.226-30.823-16.6-21.339S340.1,878.683,368.555,885.8s118.553,45.05,177.829,42.679,66.389-4.742,66.389-4.742,16.6-23.711-4.742-37.937S498.963,788.583,494.22,779.1s-40.308-16.6-40.308,0S404.12,828.891,387.523,807.551Z" transform="translate(248.946 903.703)" fill="#2f2e41"/>
  <path id="Path_296" data-name="Path 296" d="M369.175,324.058a90.955,90.955,0,0,0-8.156,25.512c-11.808,7.137-19.7,5.311-34.523,5.311-21.98,0-30.847-28.1-45.05-42.679-1.114-13.539-20.154,1.186-20.154,1.186S395.257,271.895,369.175,324.058Z" transform="translate(119.103 257.391)" opacity="0.1"/>
  <circle id="Ellipse_33" data-name="Ellipse 33" cx="78.245" cy="78.245" r="78.245" transform="translate(361.427 454.598)" fill="#9f616a"/>
  <path id="Path_297" data-name="Path 297" d="M543.987,465.3s-11.855,85.358-18.968,116.182-16.6,173.087-21.339,192.055-33.195,23.71-90.1,16.6a106.884,106.884,0,0,0-10.765-.806c-35.044-1.114-75.138,12-112.246,22.288-21.339,5.927-41.707,10.907-59.561,11.713-27.03,1.233-34.949-28.737-34.024-61.173.877-30.184,9.437-62.548,17.427-73.977,14.392-20.581.237-205.357,5.548-266.293v-.024c.806-9.295,2.063-15.7,3.936-18.21,14.226-18.968,106.7-66.389,117.059-64.469,10.338,1.921,98.707,57.356,98.707,57.356,21.339,0,20.652-23.141,20.652-23.141s14.914,27.884,43.367,35S543.987,465.3,543.987,465.3Z" transform="translate(30.835 314.131)" fill="#575a88"/>
  <path id="Path_298" data-name="Path 298" d="M289.089,521.984s152.734,4.863,125.978,23.009-145.308,34.743-147.679,11.033S289.089,521.984,289.089,521.984Z" transform="translate(127.235 564.837)" fill="#9f616a"/>
  <path id="Path_299" data-name="Path 299" d="M402.773,742.419c.5,9.1-23.995,29.615-31.914,43.485-4.387,7.682-38.34-2.442-80.331-21.2a823.678,823.678,0,0,1-93.585-49.46c.877-30.184,9.437-62.548,17.427-73.977,14.392-20.581.237-205.357,5.548-266.293v-.024a26.268,26.268,0,0,1,3.936-1.612h28.453c97.213,45.05-14.226,239.476-14.226,239.476S385.085,733.742,399.311,738.484a4.263,4.263,0,0,1,3.462,3.936Z" transform="translate(30.876 361.04)" opacity="0.1"/>
  <path id="Path_300" data-name="Path 300" d="M298.012,367.342H269.559s-26.082,7.113-47.421,54.534S122.554,616.3,191.315,673.207,407.08,796.5,416.565,779.9s42.679-42.679,28.453-47.421S283.786,606.818,283.786,606.818,395.225,412.392,298.012,367.342Z" transform="translate(-14.83 352.814)" fill="#575a88"/>
  <path id="Path_301" data-name="Path 301" d="M339.433,319.61s3.434-47.534,45.794-28.152,39.6-34.04,26.8-43.481-12.4-11.776-59.214-5.46S215.093,259.535,244.484,353.673s56.009,69.921,56.009,69.921-23.362-84.712.309-68.573l23.671,16.139,12.491-2.646Z" transform="translate(88.201 176.823)" fill="#2f2e41"/>
  <path id="Path_302" data-name="Path 302" d="M1839.891,606.469c0-42.8-318.028-77.491-710.335-77.491s-710.335,34.694-710.335,77.491c0,16.587,47.8,31.955,129.152,44.56v530.166h38.746v-524.7c130.3,16.8,324.933,27.465,542.438,27.465,219.3,0,415.366-10.844,545.667-27.882v525.116h38.746V650.52C1793.346,638.011,1839.891,622.834,1839.891,606.469Z" transform="translate(335.632 574.424)" fill="#3f3d56"/>
  <ellipse id="Ellipse_34" data-name="Ellipse 34" cx="144.634" cy="35.566" rx="144.634" ry="35.566" transform="translate(1409.545 1111.379)" fill="#f2f2f2"/>
  <ellipse id="Ellipse_35" data-name="Ellipse 35" cx="118.553" cy="29.152" rx="118.553" ry="29.152" transform="translate(1435.627 1117.792)" fill="#d0cde1"/>
  <ellipse id="Ellipse_36" data-name="Ellipse 36" cx="144.634" cy="35.566" rx="144.634" ry="35.566" transform="translate(871.316 1139.831)" fill="#f2f2f2"/>
  <ellipse id="Ellipse_37" data-name="Ellipse 37" cx="118.553" cy="29.152" rx="118.553" ry="29.152" transform="translate(897.398 1146.245)" fill="#d0cde1"/>
  <ellipse id="Ellipse_38" data-name="Ellipse 38" cx="68.951" cy="10.887" rx="68.951" ry="10.887" transform="translate(1481.862 1122.659)" fill="#9f616a"/>
  <ellipse id="Ellipse_39" data-name="Ellipse 39" cx="21.774" cy="11.794" rx="21.774" ry="11.794" transform="translate(1492.295 1105.875)" fill="#f5d452"/>
  <ellipse id="Ellipse_40" data-name="Ellipse 40" cx="21.774" cy="11.794" rx="21.774" ry="11.794" transform="translate(1484.13 1105.875)" fill="#f5d452"/>
  <ellipse id="Ellipse_41" data-name="Ellipse 41" cx="21.774" cy="11.794" rx="21.774" ry="11.794" transform="translate(1579.392 1108.597)" fill="#f5d452"/>
  <ellipse id="Ellipse_42" data-name="Ellipse 42" cx="21.774" cy="11.794" rx="21.774" ry="11.794" transform="translate(1529.493 1105.875)" fill="#f5d452"/>
  <ellipse id="Ellipse_43" data-name="Ellipse 43" cx="21.774" cy="11.794" rx="21.774" ry="11.794" transform="translate(1566.69 1105.875)" fill="#f5d452"/>
  <path id="Path_303" data-name="Path 303" d="M859.255,564.511q-59.028,20.031-132.458,0v-1.838a54.107,54.107,0,0,1,51.38-54.07,339.918,339.918,0,0,1,35.03.045,48.892,48.892,0,0,1,46.048,48.931Z" transform="translate(757.334 545.901)" fill="#3f3d56"/>
  <path id="Path_304" data-name="Path 304" d="M839.673,569.077a435.249,435.249,0,0,1-87.469,0,27.946,27.946,0,0,1-25.217-27.769h137.9a27.946,27.946,0,0,1-25.217,27.768Z" transform="translate(757.596 591.331)" fill="#3f3d56"/>
  <path id="Path_305" data-name="Path 305" d="M758.618,516.634a25.947,25.947,0,0,1-19.959,0A25.946,25.946,0,0,1,758.618,516.634Z" transform="translate(773.597 554.765)" fill="#d0cde1"/>
  <path id="Path_306" data-name="Path 306" d="M767.036,520.078a25.948,25.948,0,0,1-19.96,0,25.948,25.948,0,0,1,19.959,0Z" transform="translate(785.138 559.487)" fill="#d0cde1"/>
  <path id="Path_307" data-name="Path 307" d="M767.8,513.956a25.948,25.948,0,0,1-19.96,0A25.949,25.949,0,0,1,767.8,513.956Z" transform="translate(786.188 551.093)" fill="#d0cde1"/>
  <path id="Path_308" data-name="Path 308" d="M783.489,513.956a25.946,25.946,0,0,1-19.959,0,25.948,25.948,0,0,1,19.96,0Z" transform="translate(807.697 551.093)" fill="#d0cde1"/>
  <path id="Path_309" data-name="Path 309" d="M779.28,517.4a25.948,25.948,0,0,1-19.96,0,25.947,25.947,0,0,1,19.96,0Z" transform="translate(801.926 555.814)" fill="#d0cde1"/>
  <ellipse id="Ellipse_44" data-name="Ellipse 44" cx="68.951" cy="10.887" rx="68.951" ry="10.887" transform="translate(946.005 1151.112)" fill="#9f616a"/>
  <ellipse id="Ellipse_45" data-name="Ellipse 45" cx="21.774" cy="11.794" rx="21.774" ry="11.794" transform="translate(956.438 1134.328)" fill="#f5d452"/>
  <ellipse id="Ellipse_46" data-name="Ellipse 46" cx="21.774" cy="11.794" rx="21.774" ry="11.794" transform="translate(948.273 1134.328)" fill="#f5d452"/>
  <ellipse id="Ellipse_47" data-name="Ellipse 47" cx="21.774" cy="11.794" rx="21.774" ry="11.794" transform="translate(1043.534 1137.05)" fill="#f5d452"/>
  <ellipse id="Ellipse_48" data-name="Ellipse 48" cx="21.774" cy="11.794" rx="21.774" ry="11.794" transform="translate(993.635 1134.328)" fill="#f5d452"/>
  <ellipse id="Ellipse_49" data-name="Ellipse 49" cx="21.774" cy="11.794" rx="21.774" ry="11.794" transform="translate(1030.833 1134.328)" fill="#f5d452"/>
  <path id="Path_310" data-name="Path 310" d="M633.255,576.51q-59.028,20.031-132.459,0v-1.837A54.107,54.107,0,0,1,552.176,520.6a339.953,339.953,0,0,1,35.031.045,48.892,48.892,0,0,1,46.049,48.931Z" transform="translate(447.476 562.353)" fill="#3f3d56"/>
  <path id="Path_311" data-name="Path 311" d="M613.673,581.077a435.254,435.254,0,0,1-87.468,0,27.946,27.946,0,0,1-25.217-27.769h137.9A27.946,27.946,0,0,1,613.673,581.077Z" transform="translate(447.738 607.783)" fill="#3f3d56"/>
  <path id="Path_312" data-name="Path 312" d="M532.618,528.635a25.948,25.948,0,0,1-19.96,0,25.949,25.949,0,0,1,19.96,0Z" transform="translate(463.739 571.218)" fill="#d0cde1"/>
  <path id="Path_313" data-name="Path 313" d="M541.036,532.078a25.949,25.949,0,0,1-19.96,0A25.947,25.947,0,0,1,541.036,532.078Z" transform="translate(475.281 575.939)" fill="#d0cde1"/>
  <path id="Path_314" data-name="Path 314" d="M541.8,525.956a25.949,25.949,0,0,1-19.96,0,25.947,25.947,0,0,1,19.96,0Z" transform="translate(476.33 567.546)" fill="#d0cde1"/>
  <path id="Path_315" data-name="Path 315" d="M557.489,525.956a25.948,25.948,0,0,1-19.959,0A25.946,25.946,0,0,1,557.489,525.956Z" transform="translate(497.839 567.546)" fill="#d0cde1"/>
  <path id="Path_316" data-name="Path 316" d="M553.28,529.4a25.946,25.946,0,0,1-19.959,0,25.948,25.948,0,0,1,19.96,0Z" transform="translate(492.068 572.267)" fill="#d0cde1"/>
  <path id="Path_317" data-name="Path 317" d="M849.256,543.277l.333,7.344.425,9.526s-43.75,2.472-52.563,11.786a5.383,5.383,0,0,0-.562.646l-17.524-3.836-.043-8.633s.242-.134.712-.388c.107-.056.241-.127.376-.2a159.506,159.506,0,0,1,68.847-16.247Z" transform="translate(829.348 594.03)" fill="#f5d452"/>
  <path id="Path_318" data-name="Path 318" d="M848.845,543.277l.333,7.344c-19.4.6-56.116,12.164-56.116,12.164l-13.44-3.064a159.061,159.061,0,0,1,69.223-16.445Z" transform="translate(829.76 594.03)" opacity="0.1"/>
  <path id="Path_319" data-name="Path 319" d="M780.409,550.13l13.065,3.262,3.978,9.147a5.393,5.393,0,0,0-.562.646l-17.524-3.836-.043-8.633s.242-.135.712-.388C780.141,550.272,780.275,550.2,780.409,550.13Z" transform="translate(829.348 603.425)" fill="#fff" opacity="0.1"/>
  <path id="Path_320" data-name="Path 320" d="M626.256,556.277l.333,7.344.425,9.526s-43.75,2.472-52.563,11.786a5.33,5.33,0,0,0-.562.646l-17.524-3.836-.043-8.633s.242-.135.712-.388c.107-.056.242-.127.376-.2A159.5,159.5,0,0,1,626.256,556.277Z" transform="translate(523.604 611.854)" fill="#f5d452"/>
  <path id="Path_321" data-name="Path 321" d="M625.845,556.277l.333,7.344c-19.4.6-56.116,12.165-56.116,12.165l-13.44-3.064A159.058,159.058,0,0,1,625.845,556.277Z" transform="translate(524.015 611.854)" opacity="0.1"/>
  <path id="Path_322" data-name="Path 322" d="M557.409,563.13l13.064,3.262,3.978,9.147a5.342,5.342,0,0,0-.562.647l-17.524-3.836-.043-8.633s.242-.135.712-.388C557.141,563.272,557.275,563.2,557.409,563.13Z" transform="translate(523.604 621.249)" fill="#fff" opacity="0.1"/>
  <path id="Path_323" data-name="Path 323" d="M961.7,511.286a43.77,43.77,0,0,0-12.917-8.924v-92.13a4.073,4.073,0,0,0-4.073-4.073H921.9a4.073,4.073,0,0,0-4.073,4.073V500.6a41.348,41.348,0,0,0-28.33,39.232V737.458a18.11,18.11,0,0,0,18.11,18.11h48.855a18.026,18.026,0,0,0,18.026-18.026V542.156A43.521,43.521,0,0,0,961.7,511.286Z" transform="translate(980.401 406.035)" fill="#3f3d56"/>
  <rect id="Rectangle_88" data-name="Rectangle 88" width="84.992" height="112.273" transform="translate(1869.895 974.832)" fill="#f5d452"/>
  <path id="Path_324" data-name="Path 324" d="M935.294,412.455h-1.836v-2.223a4.073,4.073,0,0,0-4.073-4.073H906.578a4.073,4.073,0,0,0-4.073,4.073v2.223h-1.836V421.9H902.5v48.267h30.954V421.9h1.836Z" transform="translate(995.721 406.035)" fill="#f5d452"/>
  <path id="Path_325" data-name="Path 325" d="M687.035,489.638c-2.249-4.8-4.025-8.2-4.646-9.365-38.151,9.415-63.6,1.459-67.618.052-1.963,3.707-14.218,27.4-19.171,50.12-4.474,20.491-1.877,34.229,7.719,40.83l.285.2.062.042c10.593,6.98,20.7,13.162,30.032,18.372q1.887,1.05,3.557,1.951l.119.065.084.106a56.744,56.744,0,0,1,3.573,5.041,19.824,19.824,0,0,1,3.624,9.8V708.63l-.643.013c-24.335.5-39.4,4.622-39.4,8.159,0,3.881,18.062,8.205,43.979,8.205s43.979-4.324,43.979-8.205c0-3.485-14.808-7.587-38.729-8.14l-.646-.015.6-94.143a41.52,41.52,0,0,1,4.331-18.368c.483-.959,1-1.893,1.543-2.772.434-.708.894-1.4,1.367-2.05l.087-.12.13-.071q1.8-.982,3.817-2.127l.158-.086c8.834-4.989,18.352-10.839,28.293-17.391,8.876-5.851,11.966-17.678,9.185-35.149C700.059,519.711,692.723,501.762,687.035,489.638Z" transform="translate(574.542 507.649)" fill="#d0cde1"/>
  <path id="Path_326" data-name="Path 326" d="M686.432,539.787c-10.422,6.87-19.027,12.022-25.607,15.734h-.006a149.865,149.865,0,0,0-28.788.808c-6.746-3.765-15.846-9.165-27.042-16.542-.106-.071-.212-.142-.319-.218v-.006c-10.269-7.064-10.523-22.025-7.182-37.322,8.5-.944,22.049-.531,40.256,5.972,21.559,7.7,44.127,3.346,57.2-.614C697.1,521.1,695.787,533.62,686.432,539.787Z" transform="translate(577.425 537.246)" fill="#f5d452"/>
  <circle id="Ellipse_50" data-name="Ellipse 50" cx="2.951" cy="2.951" r="2.951" transform="translate(1198.939 1028.05)" fill="#f5d452"/>
  <circle id="Ellipse_51" data-name="Ellipse 51" cx="2.951" cy="2.951" r="2.951" transform="translate(1190.676 1055.198)" fill="#fff"/>
  <circle id="Ellipse_52" data-name="Ellipse 52" cx="1.771" cy="1.771" r="1.771" transform="translate(1207.201 1036.312)" fill="#f5d452"/>
  <circle id="Ellipse_53" data-name="Ellipse 53" cx="1.771" cy="1.771" r="1.771" transform="translate(1214.283 1069.952)" fill="#fff"/>
  <circle id="Ellipse_54" data-name="Ellipse 54" cx="1.771" cy="1.771" r="1.771" transform="translate(1201.889 1071.722)" fill="#fff"/>
  <circle id="Ellipse_55" data-name="Ellipse 55" cx="1.771" cy="1.771" r="1.771" transform="translate(1237.89 1012.706)" fill="#f5d452"/>
  <path id="Path_327" data-name="Path 327" d="M745.414,449.173c-2.249-4.8-4.025-8.2-4.646-9.365-38.151,9.415-63.6,1.459-67.618.052-1.963,3.707-14.218,27.4-19.171,50.12-4.474,20.492-1.877,34.229,7.719,40.83l.284.2.062.042c10.593,6.98,20.7,13.162,30.032,18.372q1.887,1.05,3.557,1.951l.119.065.084.106a56.812,56.812,0,0,1,3.573,5.041,19.825,19.825,0,0,1,3.624,9.8V668.165l-.643.013c-24.335.5-39.4,4.622-39.4,8.159,0,3.881,18.062,8.205,43.979,8.205s43.979-4.324,43.979-8.205c0-3.485-14.808-7.587-38.73-8.14l-.646-.015.6-94.143a41.515,41.515,0,0,1,4.331-18.368c.483-.96,1-1.893,1.543-2.772.434-.708.894-1.4,1.367-2.05l.087-.12.13-.071q1.8-.981,3.817-2.127l.158-.086c8.834-4.989,18.352-10.839,28.292-17.391,8.876-5.851,11.966-17.677,9.185-35.149C758.437,479.245,751.1,461.3,745.414,449.173Z" transform="translate(654.582 452.169)" fill="#d0cde1"/>
  <path id="Path_328" data-name="Path 328" d="M744.811,499.322c-10.422,6.869-19.027,12.022-25.607,15.734H719.2a149.854,149.854,0,0,0-28.788.808c-6.746-3.765-15.846-9.165-27.041-16.542-.106-.071-.213-.142-.319-.218V499.1c-10.269-7.064-10.523-22.025-7.182-37.322,8.5-.944,22.049-.531,40.255,5.972,21.559,7.7,44.127,3.346,57.205-.614C755.475,480.631,754.165,493.154,744.811,499.322Z" transform="translate(657.465 481.766)" fill="#f5d452"/>
  <circle id="Ellipse_56" data-name="Ellipse 56" cx="2.951" cy="2.951" r="2.951" transform="translate(1337.357 932.104)" fill="#f5d452"/>
  <circle id="Ellipse_57" data-name="Ellipse 57" cx="2.951" cy="2.951" r="2.951" transform="translate(1329.094 959.252)" fill="#fff"/>
  <circle id="Ellipse_58" data-name="Ellipse 58" cx="1.771" cy="1.771" r="1.771" transform="translate(1345.619 940.366)" fill="#f5d452"/>
  <circle id="Ellipse_59" data-name="Ellipse 59" cx="1.771" cy="1.771" r="1.771" transform="translate(1352.701 974.006)" fill="#fff"/>
  <circle id="Ellipse_60" data-name="Ellipse 60" cx="1.771" cy="1.771" r="1.771" transform="translate(1340.308 975.776)" fill="#fff"/>
  <circle id="Ellipse_61" data-name="Ellipse 61" cx="1.771" cy="1.771" r="1.771" transform="translate(1376.308 916.759)" fill="#f5d452"/>
</svg>
