<svg xmlns="http://www.w3.org/2000/svg" width="1920.132" height="728" viewBox="0 0 1920.132 728">
  <g id="Group_24" data-name="Group 24" transform="translate(448 2349)">
    <rect id="Rectangle_83" data-name="Rectangle 83" width="1920" height="728" transform="translate(-448 -2349)" fill="none"/>
    <path id="Path_70" data-name="Path 70" d="M545.132-500.333c-72.509,97.192-115.912,136.684-200,160.1-117.775,32.522-383.743,2.315-490.78,0-103.837-6.946-291.635,32.413-415.019,122.705s-309.583,108.814-514.2,0S-1375-179.494-1375-179.494V-870.416H545.132Z" transform="translate(927 -1478.584)" fill="rgba(244,204,38,0.61)"/>
    <path id="Path_71" data-name="Path 71" d="M545.132-531.666c-72.509,88.963-115.912,125.112-200,146.541-117.775,29.768-383.743,2.119-490.78,0-103.837-6.358-291.635,29.669-415.019,112.317s-309.583,99.6-514.2,0S-1375-237.99-1375-237.99V-870.416H545.132Z" transform="translate(927 -1478.584)" fill="rgba(244,204,38,0.61)"/>
  </g>
</svg>
